{"glyphs":{"0":{"ha":817,"x_min":69,"x_max":747,"o":"m 385 13 q 321 6 347 6 q 192 39 250 6 q 102 131 135 72 q 69 267 69 190 l 69 1178 l 453 1260 q 506 1265 476 1265 q 626 1233 569 1265 q 715 1146 682 1201 q 747 1024 747 1090 l 747 90 l 385 13 m 110 813 l 110 326 l 707 454 l 707 942 l 110 813 z "},"1":{"ha":399,"x_min":69,"x_max":329,"o":"m 329 1267 l 329 -56 l 289 -56 l 289 785 q 265 842 289 818 q 208 865 242 865 q 192 864 197 865 l 69 838 l 69 1211 l 329 1267 z "},"2":{"ha":817,"x_min":69,"x_max":747,"o":"m 69 683 q 88 734 69 711 q 133 763 106 757 l 707 885 l 707 942 l 171 828 l 171 1200 l 453 1261 q 504 1267 475 1267 q 625 1235 569 1267 q 714 1147 681 1203 q 747 1024 747 1090 l 747 521 l 110 383 l 110 326 l 747 464 l 747 90 l 69 -56 l 69 683 z "},"3":{"ha":724,"x_min":69,"x_max":654,"o":"m 69 -56 l 69 318 l 614 435 l 614 492 l 69 375 l 69 749 l 614 864 l 614 922 l 69 806 l 69 1179 l 360 1240 q 413 1246 383 1246 q 533 1214 476 1246 q 622 1126 589 1182 q 654 1004 654 1071 l 654 69 l 69 -56 z "},"4":{"ha":749,"x_min":69,"x_max":679,"o":"m 639 1253 l 679 1253 l 679 -69 l 639 -69 l 639 381 q 615 438 639 414 q 558 461 592 461 q 542 460 547 461 l 69 358 l 69 1253 l 108 1253 l 108 740 l 639 854 l 639 1253 z "},"5":{"ha":815,"x_min":69,"x_max":746,"o":"m 69 -62 l 69 311 l 707 433 l 707 490 l 69 353 l 69 960 q 123 1113 69 1046 q 261 1197 176 1179 l 583 1267 l 583 893 l 108 792 l 108 735 l 453 808 q 504 814 475 814 q 624 782 568 814 q 713 694 681 750 q 746 572 746 639 l 746 257 q 695 109 746 171 q 561 32 644 47 l 69 -62 z "},"6":{"ha":817,"x_min":69,"x_max":747,"o":"m 385 -1 q 321 -8 347 -8 q 192 25 250 -8 q 102 117 135 58 q 69 253 69 176 l 69 968 q 124 1121 69 1054 q 261 1206 178 1188 l 635 1276 l 635 903 l 110 799 l 110 743 l 453 817 q 504 822 475 822 q 625 790 569 822 q 714 702 681 758 q 747 579 747 646 l 747 76 l 385 -1 m 110 369 l 110 313 l 707 440 l 707 497 l 110 369 z "},"7":{"ha":764,"x_min":69,"x_max":694,"o":"m 656 786 q 631 843 656 819 q 574 867 607 867 q 557 865 563 867 l 69 761 l 69 1135 l 694 1268 l 694 -56 l 656 -56 l 656 786 z "},"8":{"ha":815,"x_min":69,"x_max":746,"o":"m 385 40 q 319 33 347 33 q 192 66 249 33 q 102 158 135 99 q 69 294 69 218 l 69 1207 l 453 1289 q 504 1294 475 1294 q 625 1263 569 1294 q 713 1174 681 1231 q 746 1051 746 1118 l 746 118 l 385 40 m 707 969 l 108 842 l 108 785 l 453 858 q 504 864 476 864 q 619 835 565 864 q 707 754 674 806 l 707 969 m 108 354 l 707 482 l 707 539 l 363 465 q 311 460 340 460 q 197 490 250 460 q 108 569 143 519 l 108 354 z "},"9":{"ha":817,"x_min":69,"x_max":747,"o":"m 69 -56 l 69 318 l 707 454 l 707 511 l 364 438 q 311 432 340 432 q 191 464 247 432 q 102 551 135 496 q 69 674 69 607 l 69 1178 l 453 1260 q 506 1265 476 1265 q 626 1233 569 1265 q 715 1146 682 1201 q 747 1024 747 1090 l 747 286 q 693 133 747 200 q 556 49 639 67 l 69 -56 m 110 813 l 110 756 l 707 885 l 707 942 l 110 813 z "}," ":{"ha":229,"x_min":0,"x_max":0,"o":""},",":{"ha":346,"x_min":69,"x_max":276,"o":"m 119 297 q 151 301 136 301 q 241 265 206 301 q 276 171 276 228 l 276 -183 l 217 -183 l 217 -67 q 181 19 217 -17 q 96 54 146 54 q 69 51 86 54 l 69 286 l 119 297 z "},"-":{"ha":871,"x_min":97,"x_max":774,"o":"m 97 356 l 774 501 l 774 192 l 97 46 l 97 356 z "},".":{"ha":374,"x_min":69,"x_max":304,"o":"m 69 163 l 186 279 l 304 163 l 186 44 l 69 163 z "},"،":{"ha":346,"x_min":69,"x_max":276,"o":"m 226 -1 q 194 -6 210 -6 q 105 31 140 -6 q 69 125 69 68 l 69 479 l 129 479 l 129 363 q 165 277 129 313 q 250 242 200 242 q 276 244 260 242 l 276 10 l 226 -1 z "},"؛":{"ha":374,"x_min":69,"x_max":304,"o":"m 239 303 q 207 299 222 299 q 117 335 153 299 q 82 429 82 372 l 82 756 l 142 756 l 142 667 q 177 581 142 617 q 263 546 213 546 q 289 549 272 546 l 289 314 l 239 303 m 188 235 l 304 117 l 188 0 l 69 117 l 188 235 z "},"؟":{"ha":658,"x_min":69,"x_max":589,"o":"m 443 222 l 443 467 l 278 431 q 226 425 254 425 q 112 472 154 425 q 69 601 69 518 l 69 993 q 124 1144 69 1078 q 261 1229 178 1211 l 568 1294 l 568 921 l 110 824 l 110 768 l 226 794 q 306 804 267 804 q 445 735 407 804 q 483 549 483 665 l 483 222 l 443 222 m 354 61 l 471 179 l 589 61 l 471 -56 l 354 61 z "},"ء":{"ha":585,"x_min":69,"x_max":515,"o":"m 110 282 q 119 261 110 269 q 142 256 129 253 l 515 336 l 515 -10 l 69 -106 l 69 446 q 123 599 69 532 q 261 683 176 665 l 414 717 l 414 371 l 131 310 q 115 300 121 307 q 110 282 110 293 z "},"آ":{"ha":207,"x_min":10,"x_max":201,"o":"m 83 1011 l 185 1011 l 124 724 l 124 0 l 83 0 l 83 1011 m 111 1079 q 95 1088 99 1076 q 88 1108 92 1100 q 72 1113 85 1115 l 10 1099 l 10 1144 l 92 1160 q 108 1151 104 1163 q 115 1134 111 1140 q 131 1131 118 1128 l 201 1144 l 201 1100 l 111 1079 z "},"أ":{"ha":207,"x_min":36,"x_max":185,"o":"m 83 1011 l 185 1011 l 124 724 l 124 0 l 83 0 l 83 1011 m 36 1174 q 53 1220 36 1200 q 96 1246 69 1240 l 142 1256 l 142 1189 l 56 1169 q 49 1161 49 1169 q 52 1155 49 1157 q 58 1153 56 1153 l 174 1178 l 174 1111 l 36 1081 l 36 1174 z "},"ؤ":{"ha":715,"x_min":69,"x_max":646,"o":"m 515 -157 q 581 -117 556 -149 q 606 -46 606 -86 l 606 0 l 226 -82 q 196 -85 215 -85 q 106 -49 142 -85 q 69 44 69 -12 l 69 546 q 88 597 69 575 q 133 625 106 618 l 351 672 q 404 678 375 678 q 524 645 468 678 q 613 557 579 613 q 646 435 646 501 l 646 -262 q 580 -449 646 -368 q 411 -553 514 -531 l 69 -626 l 69 -253 l 515 -157 m 606 374 l 606 431 l 131 329 q 115 319 121 326 q 108 301 108 311 q 119 280 108 288 q 143 275 129 272 l 606 374 m 194 819 q 211 866 194 846 q 254 892 228 886 l 300 901 l 300 835 l 214 815 q 207 807 207 815 q 210 801 207 803 q 217 799 214 799 l 332 824 l 332 757 l 194 726 l 194 819 z "},"إ":{"ha":221,"x_min":56,"x_max":193,"o":"m 108 288 l 169 0 l 68 0 l 68 1011 l 108 1011 l 108 288 m 193 -140 l 193 -207 l 56 -237 l 56 -144 q 72 -98 56 -118 q 115 -72 89 -78 l 161 -62 l 161 -129 l 75 -149 q 68 -157 68 -149 q 72 -163 68 -161 q 78 -165 75 -165 l 193 -140 z "},"ئ":{"ha":1129,"x_min":69,"x_max":1060,"o":"m 69 328 q 135 515 69 433 q 303 618 200 596 l 303 244 l 199 222 q 133 183 158 214 q 108 111 108 151 l 108 92 l 1021 288 l 1021 310 q 1009 332 1021 324 q 982 338 997 340 l 526 238 q 507 235 513 235 q 454 256 475 235 q 433 311 433 278 l 432 726 q 489 896 432 824 q 639 989 546 968 l 961 1060 l 961 686 l 493 585 q 478 576 483 582 q 472 560 472 569 q 483 536 472 544 q 508 531 494 528 l 904 614 q 935 617 915 617 q 1024 581 989 617 q 1060 488 1060 544 l 1060 14 q 1035 -58 1060 -28 q 971 -97 1011 -89 l 226 -257 q 196 -260 215 -260 q 106 -224 142 -260 q 69 -131 69 -187 l 69 328 m 147 767 q 164 813 147 793 q 207 839 181 833 l 253 849 l 253 782 l 167 763 q 160 754 160 763 q 163 748 160 750 q 169 746 167 746 l 285 771 l 285 704 l 147 674 l 147 767 z "},"ا":{"ha":207,"x_min":83,"x_max":185,"o":"m 83 1011 l 185 1011 l 124 724 l 124 0 l 83 0 l 83 1011 z "},"ب":{"ha":1472,"x_min":69,"x_max":1400,"o":"m 1360 701 l 1400 701 l 1400 313 q 1356 182 1400 238 q 1238 111 1311 126 l 346 -79 q 254 -90 294 -90 q 117 -35 165 -90 q 69 143 69 19 l 69 432 l 163 432 l 110 246 l 110 243 l 1296 497 q 1342 526 1324 503 q 1360 576 1360 549 l 1360 701 m 778 -167 l 850 -67 l 949 -137 l 878 -239 l 778 -167 z "},"ة":{"ha":715,"x_min":69,"x_max":646,"o":"m 69 643 q 88 694 69 672 q 133 722 106 715 l 351 769 q 404 775 375 775 q 525 743 469 775 q 613 655 581 711 q 646 532 646 599 l 646 29 l 69 -94 l 69 643 m 583 389 q 599 398 593 390 q 606 417 606 406 q 595 438 606 429 q 572 443 585 446 l 131 349 q 115 338 121 346 q 108 321 108 331 q 119 300 108 308 q 143 294 129 292 l 583 389 m 339 1036 l 440 965 l 369 865 l 283 925 l 222 839 l 121 907 l 192 1008 l 279 947 l 339 1036 z "},"ت":{"ha":1472,"x_min":69,"x_max":1400,"o":"m 1360 701 l 1400 701 l 1400 313 q 1356 182 1400 238 q 1238 111 1311 126 l 346 -79 q 254 -90 294 -90 q 117 -35 165 -90 q 69 143 69 19 l 69 432 l 163 432 l 110 246 l 110 243 l 1296 497 q 1342 526 1324 503 q 1360 576 1360 549 l 1360 701 m 781 725 l 882 654 l 811 554 l 725 614 l 664 528 l 563 596 l 633 697 l 721 636 l 781 725 z "},"ث":{"ha":1472,"x_min":69,"x_max":1400,"o":"m 1360 701 l 1400 701 l 1400 313 q 1356 182 1400 238 q 1238 111 1311 126 l 346 -79 q 254 -90 294 -90 q 117 -35 165 -90 q 69 143 69 19 l 69 432 l 163 432 l 110 246 l 110 243 l 1296 497 q 1342 526 1324 503 q 1360 576 1360 549 l 1360 701 m 783 778 l 711 678 l 613 749 l 683 850 l 783 778 m 664 528 l 563 599 l 633 699 l 719 639 l 781 725 l 882 657 l 811 556 l 724 617 l 664 528 z "},"ج":{"ha":1100,"x_min":69,"x_max":1031,"o":"m 69 146 q 130 322 69 247 q 290 418 190 396 l 890 549 q 906 559 900 551 q 913 576 913 567 q 902 597 913 589 q 879 603 892 606 l 257 468 l 257 842 l 658 929 q 711 935 682 935 q 832 903 776 935 q 920 815 888 871 q 953 692 953 758 l 953 646 q 970 597 953 615 q 1015 578 988 578 q 1031 579 1025 578 l 1031 206 l 110 7 l 110 -54 l 578 46 l 578 -328 l 265 -394 q 232 -397 254 -397 q 117 -351 165 -397 q 69 -236 69 -304 l 69 146 m 696 -140 l 768 -40 l 867 -111 l 796 -212 l 696 -140 z "},"ح":{"ha":1100,"x_min":69,"x_max":1031,"o":"m 69 146 q 130 322 69 247 q 290 418 190 396 l 890 549 q 906 559 900 551 q 913 576 913 567 q 902 597 913 589 q 879 603 892 606 l 257 468 l 257 842 l 658 929 q 711 935 682 935 q 832 903 776 935 q 920 815 888 871 q 953 692 953 758 l 953 646 q 970 597 953 615 q 1015 578 988 578 q 1031 579 1025 578 l 1031 206 l 110 7 l 110 -54 l 578 46 l 578 -328 l 265 -394 q 232 -397 254 -397 q 117 -351 165 -397 q 69 -236 69 -304 l 69 146 z "},"خ":{"ha":1100,"x_min":69,"x_max":1031,"o":"m 69 146 q 130 322 69 247 q 290 418 190 396 l 890 549 q 906 559 900 551 q 913 576 913 567 q 902 597 913 589 q 879 603 892 606 l 257 468 l 257 842 l 658 929 q 711 935 682 935 q 832 903 776 935 q 920 815 888 871 q 953 692 953 758 l 953 646 q 970 597 953 615 q 1015 578 988 578 q 1031 579 1025 578 l 1031 206 l 110 7 l 110 -54 l 578 46 l 578 -328 l 265 -394 q 232 -397 254 -397 q 117 -351 165 -397 q 69 -236 69 -304 l 69 146 m 572 1071 l 644 1171 l 743 1100 l 672 999 l 572 1071 z "},"د":{"ha":789,"x_min":56,"x_max":733,"o":"m 733 0 l 56 -144 l 56 229 l 671 361 q 687 371 681 364 q 693 388 693 378 q 683 410 693 401 q 660 415 672 418 l 157 307 l 157 681 l 439 742 q 492 747 463 747 q 611 715 556 747 q 700 626 667 682 q 733 504 733 571 l 733 0 z "},"ذ":{"ha":789,"x_min":56,"x_max":733,"o":"m 733 0 l 56 -144 l 56 229 l 671 361 q 687 371 681 364 q 693 388 693 378 q 683 410 693 401 q 660 415 672 418 l 157 307 l 157 681 l 439 742 q 492 747 463 747 q 611 715 556 747 q 700 626 667 682 q 733 504 733 571 l 733 0 m 308 883 l 381 983 l 479 913 l 408 811 l 308 883 z "},"ر":{"ha":511,"x_min":-161,"x_max":442,"o":"m 442 -99 q 376 -285 442 -204 q 207 -389 310 -367 l -161 -468 l -161 -94 l 313 7 q 377 46 353 15 q 401 118 401 76 l 401 350 l 442 350 l 442 -99 z "},"ز":{"ha":511,"x_min":-161,"x_max":486,"o":"m 442 -99 q 376 -285 442 -204 q 207 -389 310 -367 l -161 -468 l -161 -94 l 313 7 q 377 46 353 15 q 401 118 401 76 l 401 350 l 442 350 l 442 -99 m 315 492 l 388 592 l 486 521 l 415 419 l 315 492 z "},"س":{"ha":1801,"x_min":69,"x_max":1732,"o":"m 619 372 l 1732 604 l 1732 85 l 1692 85 l 1692 222 l 661 10 l 661 -507 l 363 -575 q 308 -581 339 -581 q 190 -549 244 -581 q 102 -460 135 -517 q 69 -337 69 -404 l 69 368 l 176 368 l 115 81 l 115 -10 q 149 -107 115 -64 q 235 -174 182 -150 q 349 -199 289 -199 q 403 -193 379 -199 l 621 -146 l 619 372 z "},"ش":{"ha":1801,"x_min":69,"x_max":1732,"o":"m 619 372 l 1732 604 l 1732 85 l 1692 85 l 1692 222 l 661 10 l 661 -507 l 363 -575 q 308 -581 339 -581 q 190 -549 244 -581 q 102 -460 135 -517 q 69 -337 69 -404 l 69 368 l 176 368 l 115 81 l 115 -10 q 149 -107 115 -64 q 235 -174 182 -150 q 349 -199 289 -199 q 403 -193 379 -199 l 621 -146 l 619 372 m 1174 853 l 1101 753 l 1003 824 l 1074 925 l 1174 853 m 1054 603 l 953 674 l 1024 774 l 1110 714 l 1171 800 l 1272 732 l 1201 631 l 1114 692 l 1054 603 z "},"ص":{"ha":1653,"x_min":69,"x_max":1583,"o":"m 1289 932 q 1340 938 1311 938 q 1460 905 1404 938 q 1550 817 1517 872 q 1583 694 1583 761 l 1583 256 q 1565 206 1583 228 q 1519 176 1547 183 l 661 -6 l 661 -542 l 363 -610 q 308 -615 339 -615 q 190 -583 244 -615 q 102 -495 135 -551 q 69 -372 69 -439 l 69 333 l 176 333 l 115 46 l 115 -44 q 149 -142 115 -99 q 235 -209 182 -185 q 349 -233 289 -233 q 403 -228 379 -233 l 621 -181 l 621 544 l 661 544 l 661 406 q 670 384 661 393 q 692 375 679 375 q 713 383 704 375 q 722 406 722 392 l 722 811 l 1289 932 m 761 389 l 1543 556 l 1543 613 l 761 446 l 761 389 z "},"ض":{"ha":1653,"x_min":69,"x_max":1583,"o":"m 1289 932 q 1340 938 1311 938 q 1460 905 1404 938 q 1550 817 1517 872 q 1583 694 1583 761 l 1583 256 q 1565 206 1583 228 q 1519 176 1547 183 l 661 -6 l 661 -542 l 363 -610 q 308 -615 339 -615 q 190 -583 244 -615 q 102 -495 135 -551 q 69 -372 69 -439 l 69 333 l 176 333 l 115 46 l 115 -44 q 149 -142 115 -99 q 235 -209 182 -185 q 349 -233 289 -233 q 403 -228 379 -233 l 621 -181 l 621 544 l 661 544 l 661 406 q 670 384 661 393 q 692 375 679 375 q 713 383 704 375 q 722 406 722 392 l 722 811 l 1051 881 l 965 943 l 1038 1043 l 1136 972 l 1076 886 l 1289 932 m 761 389 l 1543 556 l 1543 613 l 761 446 l 761 389 z "},"ط":{"ha":1206,"x_min":72,"x_max":1136,"o":"m 1136 186 q 1118 135 1136 158 q 1072 107 1100 113 l 72 -103 l 72 271 l 276 311 l 276 1121 l 317 1121 l 317 751 l 842 863 q 893 868 864 868 q 1013 835 957 868 q 1103 747 1069 803 q 1136 625 1136 692 l 1136 186 m 317 321 l 1096 486 l 1096 543 l 317 378 l 317 321 z "},"ظ":{"ha":1206,"x_min":72,"x_max":1136,"o":"m 1136 186 q 1118 135 1136 158 q 1072 107 1100 113 l 72 -103 l 72 271 l 276 311 l 276 1121 l 317 1121 l 317 751 l 842 863 q 893 868 864 868 q 1013 835 957 868 q 1103 747 1069 803 q 1136 625 1136 692 l 1136 186 m 317 321 l 1096 486 l 1096 543 l 317 378 l 317 321 m 507 1004 l 579 1104 l 678 1033 l 607 932 l 507 1004 z "},"ع":{"ha":942,"x_min":69,"x_max":872,"o":"m 872 164 l 110 -6 l 110 -65 l 599 44 l 599 -329 l 265 -406 q 229 -410 247 -410 q 117 -362 164 -410 q 69 -247 69 -314 l 69 144 q 128 313 69 242 q 281 404 186 383 l 390 428 l 390 661 q 444 814 390 747 q 581 899 497 881 l 867 961 l 867 588 l 451 497 q 435 487 442 494 q 429 469 429 479 q 440 449 429 457 q 463 443 450 440 l 872 538 l 872 164 z "},"غ":{"ha":942,"x_min":69,"x_max":872,"o":"m 872 164 l 110 -6 l 110 -65 l 599 44 l 599 -329 l 265 -406 q 229 -410 247 -410 q 117 -362 164 -410 q 69 -247 69 -314 l 69 144 q 128 313 69 242 q 281 404 186 383 l 390 428 l 390 661 q 444 814 390 747 q 581 899 497 881 l 867 961 l 867 588 l 451 497 q 435 487 442 494 q 429 469 429 479 q 440 449 429 457 q 463 443 450 440 l 872 538 l 872 164 m 494 1040 l 567 1140 l 665 1069 l 594 968 l 494 1040 z "},"ـ":{"ha":581,"x_min":-42,"x_max":581,"o":"m 581 371 l 581 -3 l 0 -125 l -42 -133 l -42 239 l 0 249 l 581 371 z "},"ف":{"ha":1303,"x_min":69,"x_max":1233,"o":"m 940 808 q 992 814 963 814 q 1112 782 1056 814 q 1201 694 1168 750 q 1233 572 1233 639 l 1233 96 l 167 -132 q 150 -133 161 -133 q 93 -110 117 -133 q 69 -53 69 -86 l 69 503 l 108 503 l 108 329 q 132 272 108 296 q 189 249 156 249 q 207 250 201 249 l 665 347 l 665 686 q 683 735 665 714 q 729 764 701 757 l 940 808 m 1172 456 q 1188 465 1182 457 q 1193 483 1193 474 q 1183 505 1193 497 q 1160 510 1174 513 l 728 418 q 712 409 718 417 q 706 392 706 401 q 716 369 706 378 q 739 364 726 361 l 1172 456 m 763 933 l 835 1033 l 933 963 l 863 861 l 763 933 z "},"ق":{"ha":1019,"x_min":69,"x_max":950,"o":"m 657 765 q 711 772 688 772 q 829 740 774 772 q 917 651 885 707 q 950 529 950 594 l 950 -328 l 363 -453 q 311 -458 340 -458 q 190 -426 246 -458 q 102 -338 135 -394 q 69 -215 69 -282 l 69 483 l 176 483 l 115 196 l 115 113 q 176 -31 115 17 q 328 -79 238 -79 q 403 -71 365 -79 l 889 33 q 910 60 910 38 q 900 81 910 72 q 878 86 890 89 l 579 14 q 542 10 561 10 q 430 57 476 10 q 383 171 383 104 l 383 633 q 401 684 383 661 q 447 714 419 707 l 657 765 m 889 464 q 904 474 899 467 q 910 492 910 482 q 899 514 910 506 q 876 519 889 522 l 446 418 q 430 408 436 417 q 424 390 424 400 q 434 368 424 376 q 457 363 444 360 l 889 464 m 603 1018 l 704 947 l 633 847 l 547 907 l 486 821 l 385 889 l 456 990 l 543 929 l 603 1018 z "},"ك":{"ha":1004,"x_min":69,"x_max":996,"o":"m 996 1011 l 935 724 l 935 -160 l 486 -254 q 356 -269 413 -269 q 143 -194 217 -269 q 69 14 69 -119 l 69 590 l 110 590 l 110 396 q 183 188 110 263 q 394 113 256 113 q 526 128 450 113 l 894 206 l 894 1011 l 996 1011 m 638 515 l 638 397 l 403 347 l 403 507 q 431 587 403 551 q 504 632 460 622 l 586 651 l 586 533 l 433 501 q 425 486 425 500 q 430 475 425 479 q 440 472 435 471 l 638 515 z "},"ل":{"ha":726,"x_min":69,"x_max":718,"o":"m 718 1247 l 657 960 l 657 -271 l 364 -335 q 311 -340 340 -340 q 190 -308 246 -340 q 102 -220 135 -276 q 69 -97 69 -164 l 69 589 l 110 589 l 110 285 q 142 162 110 218 q 230 74 175 106 q 349 42 285 42 q 403 47 379 42 l 617 97 l 617 1247 l 718 1247 z "},"م":{"ha":747,"x_min":69,"x_max":678,"o":"m 69 246 q 88 296 69 274 q 133 325 106 318 l 225 347 l 225 722 l 385 756 q 436 761 407 761 q 557 729 501 761 q 645 641 613 697 q 678 518 678 585 l 678 71 l 174 -40 q 128 -69 146 -47 q 110 -119 110 -90 l 110 -540 l 69 -540 l 69 246 m 264 414 l 264 357 l 639 435 l 639 493 l 264 414 z "},"ن":{"ha":726,"x_min":69,"x_max":657,"o":"m 69 492 l 313 544 l 313 171 l 115 128 l 115 125 q 200 -10 133 43 q 351 -62 267 -62 q 403 -57 381 -62 l 618 -11 l 618 629 l 657 629 l 657 -376 l 363 -440 q 310 -446 339 -446 q 190 -414 246 -446 q 102 -326 135 -382 q 69 -204 69 -271 l 69 492 z "},"ه":{"ha":949,"x_min":42,"x_max":851,"o":"m 557 1039 q 608 1044 579 1044 q 729 1013 674 1044 q 818 924 785 981 q 851 801 851 868 l 851 76 l 288 -46 q 242 -74 260 -53 q 224 -124 224 -96 l 224 -168 l 183 -168 l 183 -68 l 42 -97 l 42 276 l 183 306 l 183 736 l 386 785 l 388 785 l 388 1003 l 557 1039 m 811 443 l 811 624 q 788 680 811 657 q 732 703 765 703 q 714 701 719 703 l 603 678 q 628 563 628 624 l 628 404 l 811 443 m 567 392 q 582 401 576 393 q 588 418 588 408 q 578 440 588 432 q 554 446 568 449 l 246 379 q 230 369 236 376 q 224 351 224 361 q 234 331 224 339 q 257 325 244 322 l 567 392 z "},"و":{"ha":715,"x_min":69,"x_max":646,"o":"m 515 -157 q 581 -117 556 -149 q 606 -46 606 -86 l 606 0 l 226 -82 q 196 -85 215 -85 q 106 -49 142 -85 q 69 44 69 -12 l 69 546 q 88 597 69 575 q 133 625 106 618 l 351 672 q 404 678 375 678 q 524 645 468 678 q 613 557 579 613 q 646 435 646 501 l 646 -262 q 580 -449 646 -368 q 411 -553 514 -531 l 69 -626 l 69 -253 l 515 -157 m 606 374 l 606 431 l 131 329 q 115 319 121 326 q 108 301 108 311 q 119 280 108 288 q 143 275 129 272 l 606 374 z "},"ى":{"ha":1129,"x_min":69,"x_max":1060,"o":"m 69 328 q 135 515 69 433 q 303 618 200 596 l 303 244 l 199 222 q 133 183 158 214 q 108 111 108 151 l 108 92 l 1021 288 l 1021 310 q 1009 332 1021 324 q 982 338 997 340 l 526 238 q 507 235 513 235 q 454 256 475 235 q 433 311 433 278 l 432 726 q 489 896 432 824 q 639 989 546 968 l 961 1060 l 961 686 l 493 585 q 478 576 483 582 q 472 560 472 569 q 483 536 472 544 q 508 531 494 528 l 904 614 q 935 617 915 617 q 1024 581 989 617 q 1060 488 1060 544 l 1060 14 q 1035 -58 1060 -28 q 971 -97 1011 -89 l 226 -257 q 196 -260 215 -260 q 106 -224 142 -260 q 69 -131 69 -187 l 69 328 z "},"ي":{"ha":1129,"x_min":69,"x_max":1060,"o":"m 69 328 q 135 515 69 433 q 303 618 200 596 l 303 244 l 199 222 q 133 183 158 214 q 108 111 108 151 l 108 92 l 1021 288 l 1021 310 q 1009 332 1021 324 q 982 338 997 340 l 526 238 q 507 235 513 235 q 454 256 475 235 q 433 311 433 278 l 432 726 q 489 896 432 824 q 639 989 546 968 l 961 1060 l 961 686 l 493 585 q 478 576 483 582 q 472 560 472 569 q 483 536 472 544 q 508 531 494 528 l 904 614 q 935 617 915 617 q 1024 581 989 617 q 1060 488 1060 544 l 1060 14 q 1035 -58 1060 -28 q 971 -97 1011 -89 l 226 -257 q 196 -260 215 -260 q 106 -224 142 -260 q 69 -131 69 -187 l 69 328 m 678 -242 l 779 -312 l 708 -412 l 622 -353 l 561 -439 l 460 -371 l 531 -269 l 618 -331 l 678 -242 z "},"ً":{"ha":0,"x_min":342,"x_max":504,"o":"m 368 460 l 368 507 l 504 535 l 504 489 l 368 460 m 478 421 l 342 392 l 342 439 l 478 465 l 478 421 z "},"ٌ":{"ha":0,"x_min":271,"x_max":490,"o":"m 353 361 l 353 401 l 271 383 l 271 429 l 369 450 l 369 410 l 476 432 l 476 454 l 383 435 l 383 481 q 400 527 383 507 q 443 553 417 547 l 490 564 l 490 429 q 479 399 490 413 q 451 382 468 385 l 353 361 m 476 499 l 476 517 l 403 500 q 396 492 396 500 q 399 485 396 488 q 407 483 403 482 l 476 499 z "},"ٍ":{"ha":0,"x_min":368,"x_max":531,"o":"m 531 486 l 393 457 l 393 503 l 531 531 l 531 486 m 504 418 l 368 388 l 368 435 l 504 463 l 504 418 z "},"َ":{"ha":0,"x_min":311,"x_max":447,"o":"m 447 486 l 311 456 l 311 503 l 447 531 l 447 486 z "},"ُ":{"ha":0,"x_min":403,"x_max":508,"o":"m 403 563 l 403 608 l 494 628 l 494 650 l 403 631 l 403 676 q 419 723 403 703 q 461 749 436 743 l 508 760 l 508 625 q 498 594 508 607 q 471 578 488 581 l 403 563 m 494 694 l 494 711 l 422 696 q 415 688 415 693 q 418 681 415 683 q 425 679 421 678 l 494 694 z "},"ِ":{"ha":0,"x_min":311,"x_max":447,"o":"m 447 486 l 311 456 l 311 503 l 447 531 l 447 486 z "},"ّ":{"ha":0,"x_min":279,"x_max":417,"o":"m 279 415 l 279 506 l 293 506 l 293 476 q 297 468 293 471 q 306 467 301 465 l 333 472 q 339 475 336 472 q 342 482 342 478 l 342 529 l 354 529 l 354 489 q 358 481 354 483 q 367 479 363 478 l 394 485 q 400 488 397 485 q 403 494 403 490 l 403 551 l 417 551 l 417 483 q 406 452 417 465 q 378 436 394 439 l 279 415 z "},"ْ":{"ha":0,"x_min":225,"x_max":392,"o":"m 308 165 q 249 190 274 165 q 225 249 225 214 q 249 308 225 283 q 308 332 274 332 q 367 308 343 332 q 392 249 392 283 q 367 190 392 214 q 308 165 343 165 m 308 207 q 338 219 326 207 q 350 249 350 231 q 338 278 350 267 q 308 290 326 290 q 278 278 290 290 q 267 249 267 267 q 278 219 267 231 q 308 207 290 207 z "},"ٓ":{"ha":0,"x_min":321,"x_max":513,"o":"m 422 535 q 406 544 410 532 q 399 563 403 556 q 383 568 396 571 l 321 554 l 321 600 l 403 615 q 419 607 415 618 q 426 590 422 596 q 442 586 429 583 l 513 600 l 513 556 l 422 535 z "},"ٔ":{"ha":0,"x_min":285,"x_max":422,"o":"m 285 499 q 301 545 285 525 q 344 571 318 565 l 390 581 l 390 514 l 304 494 q 297 486 297 494 q 301 480 297 482 q 307 478 304 478 l 422 503 l 422 436 l 285 406 l 285 499 z "},"ٕ":{"ha":0,"x_min":285,"x_max":422,"o":"m 285 499 q 301 545 285 525 q 344 571 318 565 l 390 581 l 390 514 l 304 494 q 297 486 297 494 q 301 480 297 482 q 307 478 304 478 l 422 503 l 422 436 l 285 406 l 285 499 z "},"ٖ":{"ha":0,"x_min":346,"x_max":360,"o":"m 346 285 l 360 285 l 360 235 l 346 235 l 346 285 z "},"٠":{"ha":519,"x_min":69,"x_max":450,"o":"m 69 558 l 260 749 l 450 558 l 260 367 l 69 558 z "},"١":{"ha":233,"x_min":69,"x_max":164,"o":"m 164 1260 l 110 1006 l 110 -56 l 69 -56 l 69 1260 l 164 1260 z "},"٢":{"ha":651,"x_min":69,"x_max":582,"o":"m 69 958 q 123 1110 69 1044 q 260 1194 176 1176 l 582 1264 l 582 892 l 108 790 l 108 -56 l 69 -56 l 69 958 z "},"٣":{"ha":775,"x_min":69,"x_max":706,"o":"m 69 -56 l 69 1256 l 108 1264 l 108 889 l 313 932 q 358 960 340 938 q 376 1011 376 983 l 376 1256 l 417 1264 l 415 892 l 601 932 q 647 960 629 938 q 665 1011 665 983 l 665 1256 l 706 1264 l 706 908 q 665 733 706 818 q 552 592 625 650 q 386 514 479 533 l 358 507 l 358 700 q 252 583 317 632 q 108 517 188 535 l 108 -56 l 69 -56 z "},"٤":{"ha":714,"x_min":69,"x_max":644,"o":"m 110 326 l 644 442 l 644 69 l 438 25 q 338 14 389 14 q 137 99 204 14 q 69 322 69 183 l 69 597 q 85 658 69 631 q 128 700 100 685 l 128 946 q 181 1098 128 1032 q 318 1182 235 1164 l 600 1243 l 600 871 l 167 778 l 167 714 l 489 785 l 489 472 l 110 389 l 110 326 z "},"٥":{"ha":815,"x_min":69,"x_max":746,"o":"m 438 163 q 364 154 400 154 q 215 193 282 154 q 108 302 147 232 q 69 460 69 372 l 69 1092 l 453 1175 q 503 1181 475 1181 q 623 1148 567 1181 q 713 1060 679 1115 q 746 938 746 1004 l 746 228 l 438 163 m 110 728 l 110 464 l 706 593 l 706 856 l 110 728 z "},"٦":{"ha":764,"x_min":69,"x_max":694,"o":"m 656 786 q 631 843 656 819 q 574 867 607 867 q 557 865 563 867 l 69 761 l 69 1135 l 694 1268 l 694 -56 l 656 -56 l 656 786 z "},"٧":{"ha":646,"x_min":69,"x_max":576,"o":"m 576 249 q 522 96 576 163 q 385 11 468 29 l 69 -56 l 69 1256 l 108 1264 l 108 325 l 536 417 l 536 1278 l 576 1286 l 576 249 z "},"٨":{"ha":646,"x_min":69,"x_max":576,"o":"m 69 983 q 123 1135 69 1069 q 261 1219 176 1201 l 576 1286 l 576 -25 l 536 -33 l 536 906 l 108 814 l 108 -47 l 69 -56 l 69 983 z "},"٩":{"ha":763,"x_min":69,"x_max":693,"o":"m 438 363 q 364 354 400 354 q 215 393 282 354 q 108 502 147 432 q 69 660 69 572 l 69 1146 l 401 1217 q 453 1222 424 1222 q 572 1190 517 1222 q 660 1103 628 1158 q 693 981 693 1047 l 693 -42 l 654 -42 l 654 408 l 438 363 m 110 664 l 654 782 l 654 799 q 631 856 654 832 q 574 879 607 879 q 557 878 563 879 l 110 782 l 110 664 z "},"٪":{"ha":764,"x_min":69,"x_max":694,"o":"m 69 -49 l 649 1190 l 694 1190 l 115 -49 l 69 -49 m 206 1086 l 322 968 l 206 851 l 88 968 l 206 1086 m 538 332 l 654 214 l 538 97 l 419 214 l 538 332 z "},"٫":{"ha":346,"x_min":69,"x_max":276,"o":"m 119 297 q 151 301 136 301 q 241 265 206 301 q 276 171 276 228 l 276 -183 l 217 -183 l 217 -67 q 181 19 217 -17 q 96 54 146 54 q 69 51 86 54 l 69 286 l 119 297 z "},"٬":{"ha":199,"x_min":69,"x_max":129,"o":"m 69 164 l 129 164 l 129 -183 l 69 -183 l 69 164 z "},"٭":{"ha":661,"x_min":69,"x_max":592,"o":"m 381 1119 l 592 1119 l 592 1078 l 382 1078 l 531 929 l 501 900 l 351 1050 l 351 838 l 310 838 l 310 1049 l 161 900 l 132 929 l 281 1078 l 69 1078 l 69 1119 l 282 1119 l 132 1269 l 161 1299 l 310 1150 l 310 1361 l 351 1361 l 351 1149 l 501 1299 l 531 1269 l 381 1119 z "},"ٮ":{"ha":1472,"x_min":69,"x_max":1400,"o":"m 1360 701 l 1400 701 l 1400 313 q 1356 182 1400 238 q 1238 111 1311 126 l 346 -79 q 254 -90 294 -90 q 117 -35 165 -90 q 69 143 69 19 l 69 432 l 163 432 l 110 246 l 110 243 l 1296 497 q 1342 526 1324 503 q 1360 576 1360 549 l 1360 701 z "},"ٯ":{"ha":1019,"x_min":69,"x_max":950,"o":"m 657 765 q 711 772 688 772 q 829 740 774 772 q 917 651 885 707 q 950 529 950 594 l 950 -328 l 363 -453 q 311 -458 340 -458 q 190 -426 246 -458 q 102 -338 135 -394 q 69 -215 69 -282 l 69 483 l 176 483 l 115 196 l 115 113 q 176 -31 115 17 q 328 -79 238 -79 q 403 -71 365 -79 l 889 33 q 910 60 910 38 q 900 81 910 72 q 878 86 890 89 l 579 14 q 542 10 561 10 q 430 57 476 10 q 383 171 383 104 l 383 633 q 401 684 383 661 q 447 714 419 707 l 657 765 m 889 464 q 904 474 899 467 q 910 492 910 482 q 899 514 910 506 q 876 519 889 522 l 446 418 q 430 408 436 417 q 424 390 424 400 q 434 368 424 376 q 457 363 444 360 l 889 464 z "},"ٰ":{"ha":0,"x_min":403,"x_max":417,"o":"m 403 379 l 417 379 l 417 331 l 403 331 l 403 379 z "},"ٱ":{"ha":207,"x_min":3,"x_max":219,"o":"m 83 1011 l 185 1011 l 124 724 l 124 0 l 83 0 l 83 1011 m 219 1108 l 140 1090 l 79 1076 q 58 1076 65 1072 q 46 1090 51 1081 q 35 1101 40 1099 q 19 1101 31 1104 l 3 1097 l 3 1147 l 36 1153 q 49 1154 40 1154 q 70 1144 63 1154 q 83 1136 78 1135 l 83 1210 l 144 1221 q 160 1222 150 1222 q 202 1207 185 1222 q 219 1172 219 1192 l 219 1108 m 200 1160 q 207 1168 207 1163 q 203 1175 207 1172 q 197 1176 200 1178 l 96 1156 l 96 1140 l 200 1160 z "},"ٺ":{"ha":1472,"x_min":69,"x_max":1400,"o":"m 1360 701 l 1400 701 l 1400 313 q 1356 182 1400 238 q 1238 111 1311 126 l 346 -79 q 254 -90 294 -90 q 117 -35 165 -90 q 69 143 69 19 l 69 432 l 163 432 l 110 246 l 110 243 l 1296 497 q 1342 526 1324 503 q 1360 576 1360 549 l 1360 701 m 800 760 l 744 679 l 814 629 l 743 528 l 643 600 l 700 679 l 629 731 l 701 831 l 800 760 z "},"ٻ":{"ha":1472,"x_min":69,"x_max":1400,"o":"m 1360 701 l 1400 701 l 1400 313 q 1356 182 1400 238 q 1238 111 1311 126 l 346 -79 q 254 -90 294 -90 q 117 -35 165 -90 q 69 143 69 19 l 69 432 l 163 432 l 110 246 l 110 243 l 1296 497 q 1342 526 1324 503 q 1360 576 1360 549 l 1360 701 m 921 -157 l 865 -237 l 935 -287 l 864 -389 l 764 -317 l 821 -237 l 750 -186 l 822 -86 l 921 -157 z "},"پ":{"ha":1472,"x_min":69,"x_max":1400,"o":"m 1360 701 l 1400 701 l 1400 313 q 1356 182 1400 238 q 1238 111 1311 126 l 346 -79 q 254 -90 294 -90 q 117 -35 165 -90 q 69 143 69 19 l 69 432 l 163 432 l 110 246 l 110 243 l 1296 497 q 1342 526 1324 503 q 1360 576 1360 549 l 1360 701 m 901 -86 l 1003 -157 l 932 -257 l 846 -197 l 785 -283 l 683 -215 l 754 -114 l 842 -175 l 901 -86 m 782 -336 l 854 -236 l 953 -307 l 882 -408 l 782 -336 z "},"چ":{"ha":1100,"x_min":69,"x_max":1031,"o":"m 69 146 q 130 322 69 247 q 290 418 190 396 l 890 549 q 906 559 900 551 q 913 576 913 567 q 902 597 913 589 q 879 603 892 606 l 257 468 l 257 842 l 658 929 q 711 935 682 935 q 832 903 776 935 q 920 815 888 871 q 953 692 953 758 l 953 646 q 970 597 953 615 q 1015 578 988 578 q 1031 579 1025 578 l 1031 206 l 110 7 l 110 -54 l 578 46 l 578 -328 l 265 -394 q 232 -397 254 -397 q 117 -351 165 -397 q 69 -236 69 -304 l 69 146 m 840 35 l 942 -36 l 871 -136 l 785 -76 l 724 -162 l 622 -94 l 693 7 l 781 -54 l 840 35 m 721 -215 l 793 -115 l 892 -186 l 821 -287 l 721 -215 z "},"ژ":{"ha":511,"x_min":-161,"x_max":561,"o":"m 442 -99 q 376 -285 442 -204 q 207 -389 310 -367 l -161 -468 l -161 -94 l 313 7 q 377 46 353 15 q 401 118 401 76 l 401 350 l 442 350 l 442 -99 m 463 669 l 390 569 l 292 640 l 363 742 l 463 669 m 343 419 l 242 490 l 313 590 l 399 531 l 460 617 l 561 549 l 490 447 l 403 508 l 343 419 z "},"ڜ":{"ha":1801,"x_min":69,"x_max":1732,"o":"m 619 372 l 1732 604 l 1732 85 l 1692 85 l 1692 222 l 661 10 l 661 -507 l 363 -575 q 308 -581 339 -581 q 190 -549 244 -581 q 102 -460 135 -517 q 69 -337 69 -404 l 69 368 l 176 368 l 115 81 l 115 -10 q 149 -107 115 -64 q 235 -174 182 -150 q 349 -199 289 -199 q 403 -193 379 -199 l 621 -146 l 619 372 m 1174 853 l 1101 753 l 1003 824 l 1074 925 l 1174 853 m 1054 603 l 953 674 l 1024 774 l 1110 714 l 1171 800 l 1272 732 l 1201 631 l 1114 692 l 1054 603 m 1203 -35 l 1304 -106 l 1233 -206 l 1147 -146 l 1086 -232 l 985 -164 l 1056 -62 l 1143 -124 l 1203 -35 m 1083 -285 l 1156 -185 l 1254 -256 l 1183 -357 l 1083 -285 z "},"ڡ":{"ha":1303,"x_min":69,"x_max":1233,"o":"m 940 808 q 992 814 963 814 q 1112 782 1056 814 q 1201 694 1168 750 q 1233 572 1233 639 l 1233 96 l 167 -132 q 150 -133 161 -133 q 93 -110 117 -133 q 69 -53 69 -86 l 69 503 l 108 503 l 108 329 q 132 272 108 296 q 189 249 156 249 q 207 250 201 249 l 665 347 l 665 686 q 683 735 665 714 q 729 764 701 757 l 940 808 m 1172 456 q 1188 465 1182 457 q 1193 483 1193 474 q 1183 505 1193 497 q 1160 510 1174 513 l 728 418 q 712 409 718 417 q 706 392 706 401 q 716 369 706 378 q 739 364 726 361 l 1172 456 z "},"ڤ":{"ha":1303,"x_min":69,"x_max":1233,"o":"m 940 808 q 992 814 963 814 q 1112 782 1056 814 q 1201 694 1168 750 q 1233 572 1233 639 l 1233 96 l 167 -132 q 150 -133 161 -133 q 93 -110 117 -133 q 69 -53 69 -86 l 69 503 l 108 503 l 108 329 q 132 272 108 296 q 189 249 156 249 q 207 250 201 249 l 665 347 l 665 686 q 683 735 665 714 q 729 764 701 757 l 940 808 m 1172 456 q 1188 465 1182 457 q 1193 483 1193 474 q 1183 505 1193 497 q 1160 510 1174 513 l 728 418 q 712 409 718 417 q 706 392 706 401 q 716 369 706 378 q 739 364 726 361 l 1172 456 m 910 1111 l 838 1011 l 739 1082 l 810 1183 l 910 1111 m 790 861 l 689 932 l 760 1032 l 846 972 l 907 1058 l 1008 990 l 938 889 l 850 950 l 790 861 z "},"ڨ":{"ha":1019,"x_min":69,"x_max":950,"o":"m 657 765 q 711 772 688 772 q 829 740 774 772 q 917 651 885 707 q 950 529 950 594 l 950 -328 l 363 -453 q 311 -458 340 -458 q 190 -426 246 -458 q 102 -338 135 -394 q 69 -215 69 -282 l 69 483 l 176 483 l 115 196 l 115 113 q 176 -31 115 17 q 328 -79 238 -79 q 403 -71 365 -79 l 889 33 q 910 60 910 38 q 900 81 910 72 q 878 86 890 89 l 579 14 q 542 10 561 10 q 430 57 476 10 q 383 171 383 104 l 383 633 q 401 684 383 661 q 447 714 419 707 l 657 765 m 889 464 q 904 474 899 467 q 910 492 910 482 q 899 514 910 506 q 876 519 889 522 l 446 418 q 430 408 436 417 q 424 390 424 400 q 434 368 424 376 q 457 363 444 360 l 889 464 m 606 1071 l 533 971 l 435 1042 l 506 1143 l 606 1071 m 486 821 l 385 892 l 456 992 l 542 932 l 603 1018 l 704 950 l 633 849 l 546 910 l 486 821 z "},"ں":{"ha":624,"x_min":69,"x_max":554,"o":"m 515 607 l 554 607 l 554 -453 l 363 -494 q 313 -500 340 -500 q 192 -467 249 -500 q 103 -379 136 -435 q 69 -257 69 -324 l 69 442 l 176 442 l 115 154 l 115 71 q 200 -65 133 -11 q 351 -118 267 -118 q 403 -112 381 -118 l 515 -89 l 515 607 z "},"ی":{"ha":1129,"x_min":69,"x_max":1060,"o":"m 69 328 q 135 515 69 433 q 303 618 200 596 l 303 244 l 199 222 q 133 183 158 214 q 108 111 108 151 l 108 92 l 1021 288 l 1021 310 q 1009 332 1021 324 q 982 338 997 340 l 526 238 q 507 235 513 235 q 454 256 475 235 q 433 311 433 278 l 432 726 q 489 896 432 824 q 639 989 546 968 l 961 1060 l 961 686 l 493 585 q 478 576 483 582 q 472 560 472 569 q 483 536 472 544 q 508 531 494 528 l 904 614 q 935 617 915 617 q 1024 581 989 617 q 1060 488 1060 544 l 1060 14 q 1035 -58 1060 -28 q 971 -97 1011 -89 l 226 -257 q 196 -260 215 -260 q 106 -224 142 -260 q 69 -131 69 -187 l 69 328 z "},"ﭑ":{"ha":218,"x_min":7,"x_max":224,"o":"m 110 761 l 110 350 l 218 374 l 218 0 l 69 -32 l 69 1049 l 171 1049 l 110 761 m 224 1146 l 144 1128 l 83 1114 q 63 1114 69 1110 q 50 1128 56 1118 q 40 1139 44 1136 q 24 1139 35 1142 l 7 1135 l 7 1185 l 40 1190 q 53 1192 44 1192 q 74 1182 67 1192 q 88 1174 82 1172 l 88 1247 l 149 1258 q 164 1260 154 1260 q 206 1244 189 1260 q 224 1210 224 1229 l 224 1146 m 204 1197 q 211 1206 211 1200 q 208 1213 211 1210 q 201 1214 204 1215 l 100 1193 l 100 1178 l 204 1197 z "},"ﭫ":{"ha":1332,"x_min":69,"x_max":1332,"o":"m 1233 353 l 1332 374 l 1332 0 l 847 -104 q 829 -106 842 -106 q 772 -82 796 -106 q 749 -25 749 -58 l 749 -24 l 167 -147 q 150 -149 161 -149 q 93 -125 117 -149 q 69 -68 69 -101 l 69 488 l 108 488 l 108 314 q 132 257 108 281 q 189 233 156 233 q 207 235 201 233 l 665 332 l 665 671 q 683 720 665 699 q 729 749 701 742 l 940 793 q 992 799 963 799 q 1112 767 1056 799 q 1201 679 1168 735 q 1233 557 1233 624 l 1233 353 m 706 376 q 716 354 706 363 q 739 349 726 346 l 1172 440 q 1188 451 1182 443 q 1193 468 1193 458 q 1183 490 1193 482 q 1160 494 1174 497 l 728 403 q 712 394 718 401 q 706 376 706 386 m 932 1096 l 860 996 l 761 1067 l 832 1168 l 932 1096 m 813 846 l 711 917 l 782 1017 l 868 957 l 929 1043 l 1031 975 l 960 874 l 872 935 l 813 846 z "},"ﭬ":{"ha":742,"x_min":-42,"x_max":672,"o":"m 379 856 q 431 861 401 861 q 551 829 494 861 q 640 742 607 797 q 672 619 672 686 l 672 235 q 648 163 672 193 q 583 124 624 132 l 0 0 l -42 -8 l -42 364 l 0 374 l 100 396 l 100 733 q 118 783 100 761 q 164 811 136 804 l 379 856 m 611 503 q 626 513 621 506 q 632 531 632 521 q 622 552 632 544 q 599 557 613 560 l 163 465 q 147 456 153 464 q 140 439 140 449 q 151 417 140 425 q 174 411 161 408 l 611 503 m 378 1158 l 306 1058 l 207 1129 l 278 1231 l 378 1158 m 258 908 l 157 979 l 228 1079 l 314 1019 l 375 1106 l 476 1038 l 406 936 l 318 997 l 258 908 z "},"ﭭ":{"ha":771,"x_min":-42,"x_max":771,"o":"m 672 415 l 771 436 l 771 63 l 286 -42 q 268 -43 281 -43 q 211 -19 235 -43 q 188 38 188 4 l 188 40 l 0 0 l -42 -8 l -42 364 l 0 374 l 100 396 l 100 733 q 118 783 100 761 q 164 811 136 804 l 379 856 q 431 861 401 861 q 551 829 494 861 q 640 742 607 797 q 672 619 672 686 l 672 415 m 140 439 q 151 417 140 425 q 174 411 161 408 l 611 503 q 626 513 621 506 q 632 531 632 521 q 622 552 632 544 q 599 557 613 560 l 163 465 q 147 456 153 464 q 140 439 140 449 m 368 1175 l 296 1075 l 197 1146 l 268 1247 l 368 1175 m 249 925 l 147 996 l 218 1096 l 304 1036 l 365 1122 l 467 1054 l 396 953 l 308 1014 l 249 925 z "},"ﮟ":{"ha":639,"x_min":69,"x_max":639,"o":"m 554 411 l 639 429 l 639 56 l 554 38 l 554 -482 l 363 -522 q 311 -528 340 -528 q 191 -496 247 -528 q 102 -408 135 -464 q 69 -286 69 -353 l 69 414 l 176 414 l 115 126 l 115 43 q 200 -92 133 -39 q 351 -146 267 -146 q 403 -140 381 -146 l 515 -117 l 515 579 l 554 579 l 554 411 z "},"﴾":{"ha":251,"x_min":69,"x_max":182,"o":"m 143 -256 q 90 -223 111 -249 q 69 -165 69 -197 l 69 1476 q 97 1542 69 1515 q 163 1569 125 1569 q 182 1567 168 1569 l 182 1190 q 131 1165 151 1188 q 110 1110 110 1142 l 110 197 q 130 140 110 165 q 182 108 150 115 l 182 -264 l 143 -256 z "},"﴿":{"ha":251,"x_min":69,"x_max":182,"o":"m 69 108 q 122 140 101 115 q 142 197 142 165 l 142 1110 q 121 1165 142 1142 q 69 1190 100 1188 l 69 1567 q 89 1569 83 1569 q 154 1542 126 1569 q 182 1476 182 1515 l 182 -165 q 161 -223 182 -197 q 108 -256 140 -249 l 69 -264 l 69 108 z "},"ﺂ":{"ha":218,"x_min":14,"x_max":218,"o":"m 110 761 l 110 350 l 218 374 l 218 0 l 69 -32 l 69 1049 l 171 1049 l 110 761 m 115 1117 q 99 1126 103 1114 q 92 1145 96 1138 q 76 1150 89 1153 l 14 1136 l 14 1182 l 96 1197 q 112 1189 108 1200 q 119 1172 115 1178 q 135 1168 122 1165 l 206 1182 l 206 1138 l 115 1117 z "},"ﺄ":{"ha":218,"x_min":40,"x_max":218,"o":"m 110 761 l 110 350 l 218 374 l 218 0 l 69 -32 l 69 1049 l 171 1049 l 110 761 m 40 1211 q 57 1258 40 1238 q 100 1283 74 1278 l 146 1293 l 146 1226 l 60 1207 q 53 1199 53 1207 q 56 1192 53 1194 q 63 1190 60 1190 l 178 1215 l 178 1149 l 40 1118 l 40 1211 z "},"ﺆ":{"ha":771,"x_min":69,"x_max":771,"o":"m 517 -193 q 581 -153 556 -185 q 606 -82 606 -122 l 606 -36 l 226 -118 q 196 -121 215 -121 q 106 -85 142 -121 q 69 8 69 -49 l 69 511 q 88 562 69 539 q 133 590 106 585 l 353 636 q 404 642 375 642 q 524 610 468 642 q 613 522 579 578 q 646 400 646 467 l 646 346 l 771 374 l 771 0 l 646 -28 l 646 -299 q 580 -485 646 -404 q 411 -589 514 -567 l 69 -662 l 69 -289 l 517 -193 m 110 232 l 606 339 l 606 396 l 110 289 l 110 232 m 211 781 q 228 827 211 807 q 271 853 244 847 l 317 863 l 317 796 l 231 776 q 224 768 224 776 q 227 762 224 764 q 233 760 231 760 l 349 785 l 349 718 l 211 688 l 211 781 z "},"ﺈ":{"ha":218,"x_min":63,"x_max":218,"o":"m 110 761 l 110 350 l 218 374 l 218 0 l 69 -32 l 69 1049 l 171 1049 l 110 761 m 63 -176 q 79 -130 63 -150 q 122 -104 96 -110 l 168 -94 l 168 -161 l 82 -181 q 75 -189 75 -181 q 78 -195 75 -193 q 85 -197 82 -197 l 200 -172 l 200 -239 l 63 -269 l 63 -176 z "},"ﺊ":{"ha":843,"x_min":69,"x_max":843,"o":"m 817 -369 q 792 -442 817 -411 q 728 -481 768 -472 l 226 -583 q 196 -586 215 -586 q 106 -550 142 -586 q 69 -457 69 -514 l 69 1 q 135 188 69 107 q 303 292 200 269 l 303 -82 l 199 -104 q 133 -144 158 -112 q 108 -215 108 -175 l 108 -235 l 776 -96 l 776 -17 l 460 -83 l 460 225 q 478 276 460 253 q 524 304 496 299 l 843 374 l 843 0 l 817 -8 l 817 -369 m 233 454 q 250 501 233 481 q 293 526 267 521 l 339 536 l 339 469 l 253 450 q 246 442 246 450 q 249 435 246 438 q 256 433 253 433 l 371 458 l 371 392 l 233 361 l 233 454 z "},"ﺋ":{"ha":340,"x_min":-42,"x_max":271,"o":"m -42 -8 l -42 364 l 167 413 q 213 442 194 419 q 231 492 231 464 l 231 614 l 271 614 l 271 272 q 213 103 271 175 q 60 13 154 32 l -42 -8 m 119 776 q 136 823 119 803 q 179 849 153 843 l 225 858 l 225 792 l 139 772 q 132 764 132 772 q 135 758 132 760 q 142 756 139 756 l 257 781 l 257 714 l 119 683 l 119 776 z "},"ﺌ":{"ha":588,"x_min":-42,"x_max":588,"o":"m 588 396 l 588 22 l 365 -26 q 347 -28 360 -28 q 291 -5 314 -28 q 268 51 268 18 l 268 100 q 186 38 232 60 q 82 1 140 15 l 0 -18 l -42 -26 l -42 346 l 0 356 l 246 408 q 292 437 274 415 q 310 488 310 458 l 310 613 l 349 613 l 349 371 l 349 343 l 588 396 m 240 775 q 257 822 240 801 q 300 847 274 842 l 346 857 l 346 790 l 260 771 q 253 763 253 771 q 256 756 253 758 q 263 754 260 754 l 378 779 l 378 713 l 240 682 l 240 775 z "},"ﺎ":{"ha":218,"x_min":69,"x_max":218,"o":"m 110 761 l 110 350 l 218 374 l 218 0 l 69 -32 l 69 1049 l 171 1049 l 110 761 z "},"ﺐ":{"ha":1514,"x_min":69,"x_max":1514,"o":"m 1400 347 l 1514 374 l 1514 0 l 1288 -53 q 1269 -54 1282 -54 q 1213 -31 1236 -54 q 1190 25 1190 -8 l 1190 88 l 346 -93 q 254 -104 294 -104 q 117 -49 165 -104 q 69 129 69 6 l 69 418 l 163 418 l 110 232 l 110 229 l 1296 483 q 1342 512 1324 489 q 1360 563 1360 535 l 1360 688 l 1400 688 l 1400 347 m 721 -179 l 793 -79 l 892 -150 l 821 -251 l 721 -179 z "},"ﺑ":{"ha":340,"x_min":-42,"x_max":271,"o":"m -42 -8 l -42 364 l 167 413 q 213 442 194 419 q 231 492 231 464 l 231 614 l 271 614 l 271 272 q 213 103 271 175 q 60 13 154 32 l -42 -8 m 90 -131 l 163 -31 l 261 -101 l 190 -203 l 90 -131 z "},"ﺒ":{"ha":588,"x_min":-42,"x_max":588,"o":"m 588 396 l 588 22 l 365 -26 q 347 -28 360 -28 q 291 -5 314 -28 q 268 51 268 18 l 268 100 q 186 38 232 60 q 82 1 140 15 l 0 -18 l -42 -26 l -42 346 l 0 356 l 246 408 q 292 437 274 415 q 310 488 310 458 l 310 613 l 349 613 l 349 371 l 349 343 l 588 396 m 192 -190 l 264 -90 l 363 -161 l 292 -262 l 192 -190 z "},"ﺔ":{"ha":808,"x_min":129,"x_max":808,"o":"m 808 374 l 808 0 l 742 -17 q 706 -21 724 -21 q 619 15 653 -21 q 585 107 585 51 l 585 244 l 286 179 q 256 176 275 176 q 165 213 201 176 q 129 306 129 249 l 129 664 q 187 833 129 761 q 339 925 244 906 l 585 978 l 585 1067 l 625 1067 l 625 432 q 648 376 625 399 q 704 353 671 353 q 722 354 717 353 l 808 374 m 585 618 l 585 675 l 192 589 q 176 580 182 588 q 169 563 169 572 q 179 540 169 549 q 203 535 189 532 l 585 618 m 397 1192 l 499 1121 l 428 1021 l 342 1081 l 281 994 l 179 1063 l 250 1164 l 338 1103 l 397 1192 z "},"ﺖ":{"ha":1514,"x_min":69,"x_max":1514,"o":"m 1400 347 l 1514 374 l 1514 0 l 1288 -53 q 1269 -54 1282 -54 q 1213 -31 1236 -54 q 1190 25 1190 -8 l 1190 88 l 346 -93 q 254 -104 294 -104 q 117 -49 165 -104 q 69 129 69 6 l 69 418 l 163 418 l 110 232 l 110 229 l 1296 483 q 1342 512 1324 489 q 1360 563 1360 535 l 1360 688 l 1400 688 l 1400 347 m 746 696 l 847 625 l 776 525 l 690 585 l 629 499 l 528 567 l 599 668 l 686 607 l 746 696 z "},"ﺗ":{"ha":340,"x_min":-42,"x_max":349,"o":"m -42 -8 l -42 364 l 167 413 q 213 442 194 419 q 231 492 231 464 l 231 614 l 271 614 l 271 272 q 213 103 271 175 q 60 13 154 32 l -42 -8 m 247 881 l 349 810 l 278 710 l 192 769 l 131 683 l 29 751 l 100 853 l 188 792 l 247 881 z "},"ﺘ":{"ha":588,"x_min":-42,"x_max":588,"o":"m 588 396 l 588 22 l 365 -26 q 347 -28 360 -28 q 291 -5 314 -28 q 268 51 268 18 l 268 100 q 186 38 232 60 q 82 1 140 15 l 0 -18 l -42 -26 l -42 346 l 0 356 l 246 408 q 292 437 274 415 q 310 488 310 458 l 310 613 l 349 613 l 349 371 l 349 343 l 588 396 m 368 879 l 469 808 l 399 708 l 313 768 l 251 682 l 150 750 l 221 851 l 308 790 l 368 879 z "},"ﺚ":{"ha":1514,"x_min":69,"x_max":1514,"o":"m 1400 347 l 1514 374 l 1514 0 l 1288 -53 q 1269 -54 1282 -54 q 1213 -31 1236 -54 q 1190 25 1190 -8 l 1190 88 l 346 -93 q 254 -104 294 -104 q 117 -49 165 -104 q 69 129 69 6 l 69 418 l 163 418 l 110 232 l 110 229 l 1296 483 q 1342 512 1324 489 q 1360 563 1360 535 l 1360 688 l 1400 688 l 1400 347 m 749 749 l 676 649 l 578 719 l 649 821 l 749 749 m 629 499 l 528 569 l 599 669 l 685 610 l 746 696 l 847 628 l 776 526 l 689 588 l 629 499 z "},"ﺛ":{"ha":340,"x_min":-42,"x_max":349,"o":"m -42 -8 l -42 364 l 167 413 q 213 442 194 419 q 231 492 231 464 l 231 614 l 271 614 l 271 272 q 213 103 271 175 q 60 13 154 32 l -42 -8 m 250 933 l 178 833 l 79 904 l 150 1006 l 250 933 m 131 683 l 29 754 l 100 854 l 186 794 l 247 881 l 349 813 l 278 711 l 190 772 l 131 683 z "},"ﺜ":{"ha":588,"x_min":-42,"x_max":588,"o":"m 588 396 l 588 22 l 365 -26 q 347 -28 360 -28 q 291 -5 314 -28 q 268 51 268 18 l 268 100 q 186 38 232 60 q 82 1 140 15 l 0 -18 l -42 -26 l -42 346 l 0 356 l 246 408 q 292 437 274 415 q 310 488 310 458 l 310 613 l 349 613 l 349 371 l 349 343 l 588 396 m 371 932 l 299 832 l 200 903 l 271 1004 l 371 932 m 251 682 l 150 753 l 221 853 l 307 793 l 368 879 l 469 811 l 399 710 l 311 771 l 251 682 z "},"ﺞ":{"ha":1228,"x_min":69,"x_max":1228,"o":"m 1031 331 l 1228 374 l 1228 0 l 1042 -40 q 1025 -42 1036 -42 q 968 -18 992 -42 q 944 39 944 6 l 944 188 l 110 7 l 110 -54 l 578 46 l 578 -328 l 265 -394 q 232 -397 254 -397 q 117 -351 165 -397 q 69 -236 69 -304 l 69 146 q 130 322 69 247 q 290 418 190 396 l 890 549 q 906 559 900 551 q 913 576 913 567 q 902 597 913 589 q 879 603 892 606 l 257 468 l 257 842 l 658 929 q 711 935 682 935 q 832 903 776 935 q 920 815 888 871 q 953 692 953 758 l 953 646 q 970 597 953 615 q 1015 578 988 578 q 1031 579 1025 578 l 1031 331 m 696 -140 l 768 -40 l 867 -111 l 796 -212 l 696 -140 z "},"ﺟ":{"ha":944,"x_min":-42,"x_max":875,"o":"m 875 189 l 0 0 l -42 -8 l -42 364 l 0 374 l 735 532 q 751 542 744 535 q 757 560 757 550 q 747 581 757 572 q 722 586 736 589 l 85 450 l 85 824 l 503 913 q 554 918 525 918 q 675 886 619 918 q 763 798 731 854 q 796 675 796 742 l 796 628 q 814 580 796 599 q 860 561 832 561 q 875 563 869 561 l 875 189 m 411 -82 l 483 18 l 582 -53 l 511 -154 l 411 -82 z "},"ﺠ":{"ha":1000,"x_min":-42,"x_max":1000,"o":"m 875 346 l 1000 374 l 1000 0 l 833 -39 q 814 -42 819 -42 q 758 -17 782 -42 q 735 40 735 7 l 735 158 l 0 0 l -42 -8 l -42 364 l 0 374 l 735 532 q 751 542 744 535 q 757 560 757 550 q 747 581 757 572 q 722 586 736 589 l 85 450 l 85 824 l 503 913 q 554 918 525 918 q 675 886 619 918 q 763 798 731 854 q 796 675 796 742 l 796 628 q 814 580 796 599 q 860 561 832 561 q 875 563 869 561 l 875 346 m 297 -97 l 369 3 l 468 -68 l 397 -169 l 297 -97 z "},"ﺢ":{"ha":1228,"x_min":69,"x_max":1228,"o":"m 1031 331 l 1228 374 l 1228 0 l 1042 -40 q 1025 -42 1036 -42 q 968 -18 992 -42 q 944 39 944 6 l 944 188 l 110 7 l 110 -54 l 578 46 l 578 -328 l 265 -394 q 232 -397 254 -397 q 117 -351 165 -397 q 69 -236 69 -304 l 69 146 q 130 322 69 247 q 290 418 190 396 l 890 549 q 906 559 900 551 q 913 576 913 567 q 902 597 913 589 q 879 603 892 606 l 257 468 l 257 842 l 658 929 q 711 935 682 935 q 832 903 776 935 q 920 815 888 871 q 953 692 953 758 l 953 646 q 970 597 953 615 q 1015 578 988 578 q 1031 579 1025 578 l 1031 331 z "},"ﺣ":{"ha":944,"x_min":-42,"x_max":875,"o":"m 875 189 l 0 0 l -42 -8 l -42 364 l 0 374 l 735 532 q 751 542 744 535 q 757 560 757 550 q 747 581 757 572 q 722 586 736 589 l 85 450 l 85 824 l 503 913 q 554 918 525 918 q 675 886 619 918 q 763 798 731 854 q 796 675 796 742 l 796 628 q 814 580 796 599 q 860 561 832 561 q 875 563 869 561 l 875 189 z "},"ﺤ":{"ha":1000,"x_min":-42,"x_max":1000,"o":"m 875 346 l 1000 374 l 1000 0 l 833 -39 q 814 -42 819 -42 q 758 -17 782 -42 q 735 40 735 7 l 735 158 l 0 0 l -42 -8 l -42 364 l 0 374 l 735 532 q 751 542 744 535 q 757 560 757 550 q 747 581 757 572 q 722 586 736 589 l 85 450 l 85 824 l 503 913 q 554 918 525 918 q 675 886 619 918 q 763 798 731 854 q 796 675 796 742 l 796 628 q 814 580 796 599 q 860 561 832 561 q 875 563 869 561 l 875 346 z "},"ﺦ":{"ha":1228,"x_min":69,"x_max":1228,"o":"m 1031 331 l 1228 374 l 1228 0 l 1042 -40 q 1025 -42 1036 -42 q 968 -18 992 -42 q 944 39 944 6 l 944 188 l 110 7 l 110 -54 l 578 46 l 578 -328 l 265 -394 q 232 -397 254 -397 q 117 -351 165 -397 q 69 -236 69 -304 l 69 146 q 130 322 69 247 q 290 418 190 396 l 890 549 q 906 559 900 551 q 913 576 913 567 q 902 597 913 589 q 879 603 892 606 l 257 468 l 257 842 l 658 929 q 711 935 682 935 q 832 903 776 935 q 920 815 888 871 q 953 692 953 758 l 953 646 q 970 597 953 615 q 1015 578 988 578 q 1031 579 1025 578 l 1031 331 m 572 1071 l 644 1171 l 743 1100 l 672 999 l 572 1071 z "},"ﺧ":{"ha":944,"x_min":-42,"x_max":875,"o":"m 875 189 l 0 0 l -42 -8 l -42 364 l 0 374 l 735 532 q 751 542 744 535 q 757 560 757 550 q 747 581 757 572 q 722 586 736 589 l 85 450 l 85 824 l 503 913 q 554 918 525 918 q 675 886 619 918 q 763 798 731 854 q 796 675 796 742 l 796 628 q 814 580 796 599 q 860 561 832 561 q 875 563 869 561 l 875 189 m 247 1039 l 319 1139 l 418 1068 l 347 967 l 247 1039 z "},"ﺨ":{"ha":1000,"x_min":-42,"x_max":1000,"o":"m 875 346 l 1000 374 l 1000 0 l 833 -39 q 814 -42 819 -42 q 758 -17 782 -42 q 735 40 735 7 l 735 158 l 0 0 l -42 -8 l -42 364 l 0 374 l 735 532 q 751 542 744 535 q 757 560 757 550 q 747 581 757 572 q 722 586 736 589 l 85 450 l 85 824 l 503 913 q 554 918 525 918 q 675 886 619 918 q 763 798 731 854 q 796 675 796 742 l 796 628 q 814 580 796 599 q 860 561 832 561 q 875 563 869 561 l 875 346 m 294 1051 l 367 1151 l 465 1081 l 394 979 l 294 1051 z "},"ﺪ":{"ha":825,"x_min":69,"x_max":825,"o":"m 825 0 l 69 -161 l 69 211 l 685 344 q 700 353 694 346 q 706 371 706 361 q 696 393 706 385 q 672 399 686 401 l 169 290 l 169 664 l 453 725 q 504 731 475 731 q 624 698 568 731 q 713 610 679 665 q 746 488 746 554 l 746 357 l 825 374 l 825 0 z "},"ﺬ":{"ha":825,"x_min":69,"x_max":825,"o":"m 825 0 l 69 -161 l 69 211 l 685 344 q 700 353 694 346 q 706 371 706 361 q 696 393 706 385 q 672 399 686 401 l 169 290 l 169 664 l 453 725 q 504 731 475 731 q 624 698 568 731 q 713 610 679 665 q 746 488 746 554 l 746 357 l 825 374 l 825 0 m 326 867 l 399 967 l 497 896 l 426 794 l 326 867 z "},"ﺮ":{"ha":511,"x_min":-167,"x_max":511,"o":"m 511 374 l 511 0 l 436 -15 l 436 -58 q 367 -281 436 -193 q 174 -396 297 -368 l -167 -469 l -167 -96 l 307 6 q 372 44 347 14 q 396 117 396 75 l 396 350 l 511 374 z "},"ﺰ":{"ha":511,"x_min":-167,"x_max":511,"o":"m 511 374 l 511 0 l 436 -15 l 436 -58 q 367 -281 436 -193 q 174 -396 297 -368 l -167 -469 l -167 -96 l 307 6 q 372 44 347 14 q 396 117 396 75 l 396 350 l 511 374 m 310 492 l 382 592 l 481 521 l 410 419 l 310 492 z "},"ﺲ":{"ha":1811,"x_min":69,"x_max":1811,"o":"m 1811 374 l 1811 0 l 1600 -49 q 1583 -50 1594 -50 q 1526 -26 1550 -50 q 1503 31 1503 -3 l 1503 206 l 586 10 l 586 -507 l 363 -558 q 308 -564 339 -564 q 190 -532 244 -564 q 102 -444 135 -500 q 69 -321 69 -387 l 69 385 l 176 385 l 115 97 l 115 7 q 149 -90 115 -47 q 236 -158 182 -133 q 350 -182 290 -182 q 403 -176 379 -182 l 546 -146 l 544 372 l 1675 615 l 1675 343 l 1811 374 z "},"ﺳ":{"ha":1076,"x_min":-42,"x_max":1007,"o":"m -42 364 l 0 374 l 1007 586 l 1007 79 l 967 79 l 967 204 l 0 0 l -42 -8 l -42 364 z "},"ﺴ":{"ha":1035,"x_min":-42,"x_max":1035,"o":"m 1035 403 l 1035 29 l 931 8 q 915 7 925 7 q 858 31 882 7 q 833 88 833 54 l 833 139 q 765 93 804 110 q 672 67 725 76 l 568 46 q 556 44 564 44 q 522 55 536 44 q 501 83 507 65 q 401 24 457 38 l 257 -10 q 243 -11 253 -11 q 207 4 222 -11 q 192 43 192 19 l 192 54 q 25 -44 132 -21 l 0 -50 l -42 -58 l -42 314 l 0 324 l 164 357 q 210 385 192 363 q 228 436 228 407 l 228 556 l 267 556 l 267 368 l 497 425 q 543 453 525 432 q 561 504 561 475 l 561 624 l 600 624 l 600 429 l 811 468 q 857 496 839 474 q 875 547 875 518 l 875 708 l 914 708 l 914 431 q 913 378 914 394 l 1035 403 z "},"ﺶ":{"ha":1811,"x_min":69,"x_max":1811,"o":"m 1811 374 l 1811 0 l 1600 -49 q 1583 -50 1594 -50 q 1526 -26 1550 -50 q 1503 31 1503 -3 l 1503 206 l 586 10 l 586 -507 l 363 -558 q 308 -564 339 -564 q 190 -532 244 -564 q 102 -444 135 -500 q 69 -321 69 -387 l 69 385 l 176 385 l 115 97 l 115 7 q 149 -90 115 -47 q 236 -158 182 -133 q 350 -182 290 -182 q 403 -176 379 -182 l 546 -146 l 544 372 l 1675 615 l 1675 343 l 1811 374 m 1076 815 l 1004 715 l 906 786 l 976 888 l 1076 815 m 957 565 l 856 636 l 926 736 l 1013 676 l 1074 763 l 1175 694 l 1104 593 l 1017 654 l 957 565 z "},"ﺷ":{"ha":1076,"x_min":-42,"x_max":1007,"o":"m -42 364 l 0 374 l 1007 586 l 1007 79 l 967 79 l 967 204 l 0 0 l -42 -8 l -42 364 m 558 851 l 486 751 l 388 822 l 458 924 l 558 851 m 439 601 l 338 672 l 408 772 l 494 713 l 556 799 l 657 731 l 586 629 l 499 690 l 439 601 z "},"ﺸ":{"ha":1035,"x_min":-42,"x_max":1035,"o":"m 1035 403 l 1035 29 l 931 8 q 915 7 925 7 q 858 31 882 7 q 833 88 833 54 l 833 139 q 765 93 804 110 q 672 67 725 76 l 568 46 q 556 44 564 44 q 522 55 536 44 q 501 83 507 65 q 401 24 457 38 l 257 -10 q 243 -11 253 -11 q 207 4 222 -11 q 192 43 192 19 l 192 54 q 25 -44 132 -21 l 0 -50 l -42 -58 l -42 314 l 0 324 l 164 357 q 210 385 192 363 q 228 436 228 407 l 228 556 l 267 556 l 267 368 l 497 425 q 543 453 525 432 q 561 504 561 475 l 561 624 l 600 624 l 600 429 l 811 468 q 857 496 839 474 q 875 547 875 518 l 875 708 l 914 708 l 914 431 q 913 378 914 394 l 1035 403 m 572 965 l 500 865 l 401 936 l 472 1038 l 572 965 m 453 715 l 351 786 l 422 886 l 508 826 l 569 913 l 671 844 l 600 743 l 513 804 l 453 715 z "},"ﺺ":{"ha":1656,"x_min":69,"x_max":1656,"o":"m 1508 346 l 1656 374 l 1656 0 l 1425 -50 q 1407 -51 1419 -51 q 1351 -28 1374 -51 q 1328 28 1328 -6 l 1329 188 l 586 31 l 586 -506 l 363 -557 q 308 -562 339 -562 q 190 -531 244 -562 q 102 -442 135 -499 q 69 -319 69 -386 l 69 386 l 176 386 l 115 99 l 115 8 q 149 -89 115 -46 q 236 -156 182 -132 q 350 -181 290 -181 q 403 -175 379 -181 l 546 -144 l 546 581 l 586 581 l 586 442 q 595 420 586 429 q 617 411 604 411 q 638 419 629 411 q 647 442 647 428 l 647 764 l 1214 885 q 1265 890 1236 890 q 1385 858 1329 890 q 1475 769 1442 825 q 1508 647 1508 714 l 1508 346 m 1468 649 l 686 482 l 686 425 l 1468 592 l 1468 649 z "},"ﺻ":{"ha":1131,"x_min":-42,"x_max":1061,"o":"m 0 0 l -42 -8 l -42 364 l 0 374 l 101 396 l 101 571 l 140 571 l 140 442 q 149 420 140 429 q 171 411 158 411 q 193 420 185 411 q 201 442 201 429 l 201 847 l 768 974 q 822 979 792 979 q 941 947 886 979 q 1028 860 996 915 q 1061 736 1061 804 l 1061 325 q 1037 253 1061 285 q 972 213 1013 222 l 0 0 m 242 483 l 242 426 l 1022 597 l 1022 656 l 242 483 z "},"ﺼ":{"ha":1211,"x_min":-42,"x_max":1211,"o":"m 1061 346 l 1211 374 l 1211 0 l 981 -50 q 963 -51 975 -51 q 906 -28 929 -51 q 883 28 883 -6 l 885 193 l 239 50 l -42 -8 l -42 364 l 0 374 l 101 396 l 101 571 l 140 571 l 140 442 q 149 420 140 429 q 171 411 158 411 q 193 420 185 411 q 201 442 201 429 l 201 769 l 768 896 q 822 901 792 901 q 941 869 886 901 q 1028 782 996 838 q 1061 658 1061 726 l 1061 346 m 242 483 l 242 426 l 1022 597 l 1022 656 l 242 483 z "},"ﺾ":{"ha":1656,"x_min":69,"x_max":1656,"o":"m 1508 346 l 1656 374 l 1656 0 l 1425 -50 q 1407 -51 1419 -51 q 1351 -28 1374 -51 q 1328 28 1328 -6 l 1329 188 l 586 31 l 586 -506 l 363 -557 q 308 -562 339 -562 q 190 -531 244 -562 q 102 -442 135 -499 q 69 -319 69 -386 l 69 386 l 176 386 l 115 99 l 115 8 q 149 -89 115 -46 q 236 -156 182 -132 q 350 -181 290 -181 q 403 -175 379 -181 l 546 -144 l 546 581 l 586 581 l 586 442 q 595 420 586 429 q 617 411 604 411 q 638 419 629 411 q 647 442 647 428 l 647 764 l 1214 885 q 1265 890 1236 890 q 1385 858 1329 890 q 1475 769 1442 825 q 1508 647 1508 714 l 1508 346 m 1468 649 l 686 482 l 686 425 l 1468 592 l 1468 649 m 879 993 l 951 1093 l 1050 1022 l 979 921 l 879 993 z "},"ﺿ":{"ha":1131,"x_min":-42,"x_max":1061,"o":"m 0 0 l -42 -8 l -42 364 l 0 374 l 101 396 l 101 571 l 140 571 l 140 442 q 149 420 140 429 q 171 411 158 411 q 193 420 185 411 q 201 442 201 429 l 201 847 l 768 974 q 822 979 792 979 q 941 947 886 979 q 1028 860 996 915 q 1061 736 1061 804 l 1061 325 q 1037 253 1061 285 q 972 213 1013 222 l 0 0 m 242 483 l 242 426 l 1022 597 l 1022 656 l 242 483 m 458 1079 l 531 1179 l 629 1108 l 558 1007 l 458 1079 z "},"ﻀ":{"ha":1211,"x_min":-42,"x_max":1211,"o":"m 1061 346 l 1211 374 l 1211 0 l 981 -50 q 963 -51 975 -51 q 906 -28 929 -51 q 883 28 883 -6 l 885 193 l 239 50 l -42 -8 l -42 364 l 0 374 l 101 396 l 101 571 l 140 571 l 140 442 q 149 420 140 429 q 171 411 158 411 q 193 420 185 411 q 201 442 201 429 l 201 769 l 768 896 q 822 901 792 901 q 941 869 886 901 q 1028 782 996 838 q 1061 658 1061 726 l 1061 346 m 242 483 l 242 426 l 1022 597 l 1022 656 l 242 483 m 421 978 l 493 1078 l 592 1007 l 521 906 l 421 978 z "},"ﻂ":{"ha":1383,"x_min":69,"x_max":1383,"o":"m 1240 347 l 1383 374 l 1383 0 l 1153 -50 q 1135 -51 1147 -51 q 1078 -28 1101 -51 q 1056 28 1056 -6 l 1057 189 l 69 -24 l 69 350 l 274 392 l 274 1201 l 313 1201 l 313 751 l 946 892 q 999 897 969 897 q 1118 865 1063 897 q 1207 776 1174 832 q 1240 654 1240 721 l 1240 347 m 1200 651 l 313 457 l 313 400 l 1200 594 l 1200 651 z "},"ﻃ":{"ha":1029,"x_min":-42,"x_max":960,"o":"m 960 269 q 942 219 960 242 q 896 190 924 196 l 0 0 l -42 -8 l -42 364 l 0 374 l 100 394 l 100 1204 l 140 1204 l 140 835 l 665 946 q 717 951 688 951 q 837 919 781 951 q 926 831 893 886 q 960 708 960 775 l 960 269 m 140 404 l 919 569 l 919 626 l 140 461 l 140 404 z "},"ﻄ":{"ha":1211,"x_min":-42,"x_max":1211,"o":"m 1068 347 l 1211 374 l 1211 0 l 981 -50 q 963 -51 975 -51 q 906 -28 929 -51 q 883 28 883 -6 l 885 192 l 0 0 l -42 -8 l -42 364 l 0 374 l 101 394 l 101 1204 l 140 1204 l 140 754 l 774 894 q 826 900 797 900 q 946 867 890 900 q 1035 779 1001 835 q 1068 657 1068 724 l 1068 347 m 1028 654 l 140 460 l 140 403 l 1028 597 l 1028 654 z "},"ﻆ":{"ha":1383,"x_min":69,"x_max":1383,"o":"m 1240 347 l 1383 374 l 1383 0 l 1153 -50 q 1135 -51 1147 -51 q 1078 -28 1101 -51 q 1056 28 1056 -6 l 1057 189 l 69 -24 l 69 350 l 274 392 l 274 1201 l 313 1201 l 313 751 l 946 892 q 999 897 969 897 q 1118 865 1063 897 q 1207 776 1174 832 q 1240 654 1240 721 l 1240 347 m 1200 651 l 313 457 l 313 400 l 1200 594 l 1200 651 m 581 975 l 653 1075 l 751 1004 l 681 903 l 581 975 z "},"ﻇ":{"ha":1029,"x_min":-42,"x_max":960,"o":"m 960 269 q 942 219 960 242 q 896 190 924 196 l 0 0 l -42 -8 l -42 364 l 0 374 l 100 394 l 100 1204 l 140 1204 l 140 835 l 665 946 q 717 951 688 951 q 837 919 781 951 q 926 831 893 886 q 960 708 960 775 l 960 269 m 140 404 l 919 569 l 919 626 l 140 461 l 140 404 m 429 1057 l 501 1157 l 600 1086 l 529 985 l 429 1057 z "},"ﻈ":{"ha":1211,"x_min":-42,"x_max":1211,"o":"m 1068 347 l 1211 374 l 1211 0 l 981 -50 q 963 -51 975 -51 q 906 -28 929 -51 q 883 28 883 -6 l 885 192 l 0 0 l -42 -8 l -42 364 l 0 374 l 101 394 l 101 1204 l 140 1204 l 140 754 l 774 894 q 826 900 797 900 q 946 867 890 900 q 1035 779 1001 835 q 1068 657 1068 724 l 1068 347 m 1028 654 l 140 460 l 140 403 l 1028 597 l 1028 654 m 413 1017 l 485 1117 l 583 1046 l 513 944 l 413 1017 z "},"ﻊ":{"ha":1010,"x_min":69,"x_max":1010,"o":"m 872 342 l 1010 374 l 1010 0 l 817 -46 q 797 -49 803 -49 q 742 -25 765 -49 q 718 32 718 -1 l 718 129 l 110 -6 l 110 -65 l 599 44 l 599 -329 l 265 -406 q 229 -410 247 -410 q 117 -362 164 -410 q 69 -247 69 -314 l 69 144 q 128 313 69 242 q 281 404 186 383 l 390 428 l 390 661 q 444 814 390 747 q 581 899 497 881 l 867 961 l 867 588 l 451 497 q 435 487 442 494 q 429 469 429 479 q 440 449 429 457 q 463 443 450 440 l 872 538 l 872 342 z "},"ﻋ":{"ha":801,"x_min":-42,"x_max":732,"o":"m 732 157 l 0 0 l -42 -8 l -42 364 l 0 374 l 78 390 l 78 624 q 131 776 78 710 q 268 861 185 843 l 654 944 l 654 571 l 139 460 q 123 450 129 457 q 117 433 117 443 q 127 411 117 419 q 150 406 138 403 l 732 531 l 732 157 z "},"ﻌ":{"ha":908,"x_min":-42,"x_max":908,"o":"m 764 342 l 908 374 l 908 0 l 707 -46 q 690 -47 701 -47 q 634 -23 658 -47 q 610 35 610 1 l 610 129 l 0 0 l -42 -8 l -42 364 l 0 374 l 149 404 l 149 638 q 202 788 149 722 q 340 874 256 854 l 685 950 l 685 576 l 210 472 q 194 463 200 471 q 189 446 189 456 q 199 425 189 433 q 222 419 208 417 l 764 536 l 764 342 z "},"ﻎ":{"ha":1010,"x_min":69,"x_max":1010,"o":"m 872 342 l 1010 374 l 1010 0 l 817 -46 q 797 -49 803 -49 q 742 -25 765 -49 q 718 32 718 -1 l 718 129 l 110 -6 l 110 -65 l 599 44 l 599 -329 l 265 -406 q 229 -410 247 -410 q 117 -362 164 -410 q 69 -247 69 -314 l 69 144 q 128 313 69 242 q 281 404 186 383 l 390 428 l 390 661 q 444 814 390 747 q 581 899 497 881 l 867 961 l 867 588 l 451 497 q 435 487 442 494 q 429 469 429 479 q 440 449 429 457 q 463 443 450 440 l 872 538 l 872 342 m 494 1040 l 567 1140 l 665 1069 l 594 968 l 494 1040 z "},"ﻏ":{"ha":801,"x_min":-42,"x_max":732,"o":"m 732 157 l 0 0 l -42 -8 l -42 364 l 0 374 l 78 390 l 78 624 q 131 776 78 710 q 268 861 185 843 l 654 944 l 654 571 l 139 460 q 123 450 129 457 q 117 433 117 443 q 127 411 117 419 q 150 406 138 403 l 732 531 l 732 157 m 350 1042 l 422 1142 l 521 1071 l 450 969 l 350 1042 z "},"ﻐ":{"ha":908,"x_min":-42,"x_max":908,"o":"m 764 342 l 908 374 l 908 0 l 707 -46 q 690 -47 701 -47 q 634 -23 658 -47 q 610 35 610 1 l 610 129 l 0 0 l -42 -8 l -42 364 l 0 374 l 149 404 l 149 638 q 202 788 149 722 q 340 874 256 854 l 685 950 l 685 576 l 210 472 q 194 463 200 471 q 189 446 189 456 q 199 425 189 433 q 222 419 208 417 l 764 536 l 764 342 m 379 1057 l 451 1157 l 550 1086 l 479 985 l 379 1057 z "},"ﻒ":{"ha":1332,"x_min":69,"x_max":1332,"o":"m 1233 353 l 1332 374 l 1332 0 l 847 -104 q 829 -106 842 -106 q 772 -82 796 -106 q 749 -25 749 -58 l 749 -24 l 167 -147 q 150 -149 161 -149 q 93 -125 117 -149 q 69 -68 69 -101 l 69 488 l 108 488 l 108 314 q 132 257 108 281 q 189 233 156 233 q 207 235 201 233 l 665 332 l 665 671 q 683 720 665 699 q 729 749 701 742 l 940 793 q 992 799 963 799 q 1112 767 1056 799 q 1201 679 1168 735 q 1233 557 1233 624 l 1233 353 m 706 376 q 716 354 706 363 q 739 349 726 346 l 1172 440 q 1188 451 1182 443 q 1193 468 1193 458 q 1183 490 1193 482 q 1160 494 1174 497 l 728 403 q 712 394 718 401 q 706 376 706 386 m 785 918 l 857 1018 l 956 947 l 885 846 l 785 918 z "},"ﻓ":{"ha":742,"x_min":-42,"x_max":672,"o":"m 379 856 q 431 861 401 861 q 551 829 494 861 q 640 742 607 797 q 672 619 672 686 l 672 235 q 648 163 672 193 q 583 124 624 132 l 0 0 l -42 -8 l -42 364 l 0 374 l 100 396 l 100 733 q 118 783 100 761 q 164 811 136 804 l 379 856 m 611 503 q 626 513 621 506 q 632 531 632 521 q 622 552 632 544 q 599 557 613 560 l 163 465 q 147 456 153 464 q 140 439 140 449 q 151 417 140 425 q 174 411 161 408 l 611 503 m 231 981 l 303 1081 l 401 1010 l 331 908 l 231 981 z "},"ﻔ":{"ha":771,"x_min":-42,"x_max":771,"o":"m 672 415 l 771 436 l 771 63 l 286 -42 q 268 -43 281 -43 q 211 -19 235 -43 q 188 38 188 4 l 188 40 l 0 0 l -42 -8 l -42 364 l 0 374 l 100 396 l 100 733 q 118 783 100 761 q 164 811 136 804 l 379 856 q 431 861 401 861 q 551 829 494 861 q 640 742 607 797 q 672 619 672 686 l 672 415 m 140 439 q 151 417 140 425 q 174 411 161 408 l 611 503 q 626 513 621 506 q 632 531 632 521 q 622 552 632 544 q 599 557 613 560 l 163 465 q 147 456 153 464 q 140 439 140 449 m 221 997 l 293 1097 l 392 1026 l 321 925 l 221 997 z "},"ﻖ":{"ha":1092,"x_min":69,"x_max":1092,"o":"m 950 343 l 1092 374 l 1092 0 l 950 -31 l 950 -460 l 363 -585 q 311 -590 340 -590 q 190 -558 246 -590 q 102 -470 135 -526 q 69 -347 69 -414 l 69 351 l 176 351 l 115 64 l 115 -19 q 176 -163 115 -115 q 328 -211 238 -211 q 403 -203 365 -211 l 889 -99 q 910 -72 910 -94 q 900 -51 910 -60 q 878 -46 890 -43 l 581 -110 q 546 -114 564 -114 q 433 -67 481 -114 q 385 49 385 -19 l 385 511 q 403 562 385 539 q 449 590 421 585 l 657 633 q 707 639 690 639 q 828 607 772 639 q 917 519 883 575 q 950 397 950 464 l 950 343 m 889 331 q 904 341 899 333 q 910 358 910 349 q 899 381 910 372 q 876 386 889 389 l 447 294 q 431 285 438 293 q 425 267 425 276 q 435 244 425 253 q 458 239 446 236 l 889 331 m 606 900 l 707 829 l 636 729 l 550 789 l 489 703 l 388 771 l 458 872 l 546 811 l 606 900 z "},"ﻗ":{"ha":742,"x_min":-42,"x_max":672,"o":"m 379 856 q 431 861 401 861 q 551 829 494 861 q 640 742 607 797 q 672 619 672 686 l 672 235 q 648 163 672 193 q 583 124 624 132 l 0 0 l -42 -8 l -42 364 l 0 374 l 100 396 l 100 733 q 118 783 100 761 q 164 811 136 804 l 379 856 m 611 503 q 626 513 621 506 q 632 531 632 521 q 622 552 632 544 q 599 557 613 560 l 163 465 q 147 456 153 464 q 140 439 140 449 q 151 417 140 425 q 174 411 161 408 l 611 503 m 375 1106 l 476 1035 l 406 935 l 319 994 l 258 908 l 157 976 l 228 1078 l 315 1017 l 375 1106 z "},"ﻘ":{"ha":771,"x_min":-42,"x_max":771,"o":"m 672 415 l 771 436 l 771 63 l 286 -42 q 268 -43 281 -43 q 211 -19 235 -43 q 188 38 188 4 l 188 40 l 0 0 l -42 -8 l -42 364 l 0 374 l 100 396 l 100 733 q 118 783 100 761 q 164 811 136 804 l 379 856 q 431 861 401 861 q 551 829 494 861 q 640 742 607 797 q 672 619 672 686 l 672 415 m 140 439 q 151 417 140 425 q 174 411 161 408 l 611 503 q 626 513 621 506 q 632 531 632 521 q 622 552 632 544 q 599 557 613 560 l 163 465 q 147 456 153 464 q 140 439 140 449 m 365 1122 l 467 1051 l 396 951 l 310 1011 l 249 925 l 147 993 l 218 1094 l 306 1033 l 365 1122 z "},"ﻚ":{"ha":1179,"x_min":69,"x_max":1179,"o":"m 935 322 l 1179 374 l 1179 0 l 918 -54 l 918 19 l 486 -71 q 356 -86 413 -86 q 143 -11 217 -86 q 69 197 69 64 l 69 676 l 110 676 l 110 579 q 183 371 110 446 q 394 296 256 296 q 526 311 450 296 l 894 389 l 894 1054 l 996 1054 l 935 767 l 935 322 m 638 699 l 638 581 l 403 531 l 403 690 q 431 770 403 735 q 504 815 460 806 l 586 835 l 586 717 l 433 685 q 425 669 425 683 q 430 658 425 663 q 440 656 435 654 l 638 699 z "},"ﻛ":{"ha":1022,"x_min":-42,"x_max":953,"o":"m 0 0 l -42 -8 l -42 364 l 0 374 l 913 567 l 913 588 q 901 610 913 601 q 876 617 890 619 l 94 451 l 94 982 q 148 1135 94 1068 q 285 1219 201 1201 l 746 1317 l 746 943 l 171 819 q 142 806 150 815 q 133 775 133 796 l 133 754 l 796 894 q 826 897 807 897 q 917 861 881 897 q 953 768 953 825 l 953 293 q 928 221 953 251 q 864 182 904 190 l 0 0 z "},"ﻜ":{"ha":1125,"x_min":-42,"x_max":1125,"o":"m 978 342 l 1125 372 l 1125 0 l 906 -47 q 888 -49 900 -49 q 831 -25 854 -49 q 807 32 807 -1 l 807 171 l 0 0 l -42 -8 l -42 364 l 0 374 l 938 572 l 938 593 q 926 616 938 607 q 901 622 915 625 l 119 457 l 118 988 q 172 1140 118 1074 q 308 1225 225 1207 l 769 1322 l 769 949 l 194 825 q 165 811 174 821 q 157 781 157 801 l 157 760 l 819 900 q 850 903 831 903 q 940 867 904 903 q 976 774 976 831 l 978 342 z "},"ﻞ":{"ha":815,"x_min":69,"x_max":815,"o":"m 815 374 l 815 0 l 656 -31 l 657 -546 l 364 -610 q 311 -615 340 -615 q 190 -583 246 -615 q 102 -495 135 -551 q 69 -372 69 -439 l 69 314 l 110 314 l 110 10 q 142 -113 110 -57 q 230 -201 175 -169 q 349 -233 285 -233 q 403 -228 379 -233 l 617 -178 l 617 971 l 717 971 l 656 683 l 656 443 q 681 385 656 408 q 739 361 706 361 q 754 363 749 361 l 815 374 z "},"ﻟ":{"ha":297,"x_min":-42,"x_max":275,"o":"m 275 1176 l 214 889 l 214 47 l 0 0 l -42 -8 l -42 364 l 0 374 l 111 397 q 157 426 139 403 q 175 478 175 449 l 175 1176 l 275 1176 z "},"ﻠ":{"ha":400,"x_min":-42,"x_max":400,"o":"m 229 794 l 229 338 l 400 374 l 400 0 l 189 -46 l 189 40 l 0 0 l -42 -8 l -42 364 l 0 374 l 189 414 l 189 1082 l 290 1082 l 229 794 z "},"ﻢ":{"ha":839,"x_min":113,"x_max":839,"o":"m 721 346 l 839 374 l 839 0 l 665 -37 q 639 -40 649 -40 q 572 -13 599 -40 q 546 60 546 14 l 546 79 l 217 7 q 171 -22 189 0 q 153 -72 153 -43 l 153 -283 l 213 -493 l 113 -493 l 113 293 q 131 343 113 321 q 176 372 149 365 l 268 394 l 268 769 l 428 803 q 479 808 450 808 q 600 776 544 808 q 688 688 656 744 q 721 565 721 632 l 721 346 m 682 540 l 307 461 l 307 404 l 682 482 l 682 540 z "},"ﻣ":{"ha":610,"x_min":-42,"x_max":540,"o":"m 540 119 l 0 0 l -42 -8 l -42 364 l 92 396 l 92 771 l 247 804 q 299 810 269 810 q 419 778 364 810 q 508 690 475 746 q 540 567 540 633 l 540 119 m 131 463 l 131 406 l 501 483 l 501 542 l 131 463 z "},"ﻤ":{"ha":658,"x_min":-42,"x_max":658,"o":"m 540 346 l 658 374 l 658 0 l 485 -37 q 458 -40 468 -40 q 392 -13 418 -40 q 365 60 365 14 l 365 81 l 0 0 l -42 -8 l -42 364 l 92 396 l 92 771 l 247 804 q 299 810 269 810 q 419 778 364 810 q 508 690 475 746 q 540 567 540 633 l 540 346 m 501 542 l 131 463 l 131 406 l 501 483 l 501 542 z "},"ﻦ":{"ha":771,"x_min":69,"x_max":771,"o":"m 771 374 l 771 0 l 657 -24 l 657 -485 l 363 -549 q 310 -554 339 -554 q 190 -522 246 -554 q 102 -435 135 -490 q 69 -312 69 -379 l 69 383 l 313 436 l 313 63 l 115 19 l 115 17 q 200 -118 133 -65 q 351 -171 267 -171 q 403 -165 381 -171 l 618 -119 l 618 521 l 657 521 l 657 349 l 771 374 z "},"ﻧ":{"ha":340,"x_min":-42,"x_max":274,"o":"m -42 -8 l -42 364 l 167 413 q 213 442 194 419 q 231 492 231 464 l 231 614 l 271 614 l 271 272 q 213 103 271 175 q 60 13 154 32 l -42 -8 m 103 756 l 175 856 l 274 785 l 203 683 l 103 756 z "},"ﻨ":{"ha":588,"x_min":-42,"x_max":588,"o":"m 588 396 l 588 22 l 365 -26 q 347 -28 360 -28 q 291 -5 314 -28 q 268 51 268 18 l 268 100 q 186 38 232 60 q 82 1 140 15 l 0 -18 l -42 -26 l -42 346 l 0 356 l 246 408 q 292 437 274 415 q 310 488 310 458 l 310 613 l 349 613 l 349 371 l 349 343 l 588 396 m 224 754 l 296 854 l 394 783 l 324 682 l 224 754 z "},"ﻪ":{"ha":808,"x_min":129,"x_max":808,"o":"m 808 374 l 808 0 l 742 -17 q 706 -21 724 -21 q 619 15 653 -21 q 585 107 585 51 l 585 244 l 286 179 q 256 176 275 176 q 165 213 201 176 q 129 306 129 249 l 129 664 q 187 833 129 761 q 339 925 244 906 l 585 978 l 585 1067 l 625 1067 l 625 432 q 648 376 625 399 q 704 353 671 353 q 722 354 717 353 l 808 374 m 585 618 l 585 675 l 192 589 q 176 580 182 588 q 169 563 169 572 q 179 540 169 549 q 203 535 189 532 l 585 618 z "},"ﻫ":{"ha":879,"x_min":-42,"x_max":810,"o":"m 515 1136 q 567 1142 538 1142 q 688 1110 632 1142 q 776 1022 743 1078 q 810 899 810 965 l 810 174 l 246 51 q 200 23 218 44 q 182 -26 182 1 l 182 -71 l 142 -71 l 142 29 l -42 -8 l -42 364 l 0 374 l 142 403 l 142 833 l 344 882 l 346 882 l 346 1100 l 515 1136 m 769 540 l 769 721 q 747 777 769 754 q 690 800 724 800 q 672 799 678 800 l 561 775 q 586 660 586 721 l 586 501 l 769 540 m 525 489 q 540 498 535 490 q 546 515 546 506 q 536 538 546 529 q 513 543 526 546 l 204 476 q 188 466 194 474 q 182 449 182 458 q 192 428 182 436 q 215 422 203 419 l 525 489 z "},"ﻬ":{"ha":906,"x_min":-42,"x_max":906,"o":"m 906 374 l 906 0 l 732 -37 q 686 -66 704 -43 q 668 -117 668 -89 l 668 -297 l 385 -358 q 333 -364 363 -364 q 214 -331 269 -364 q 125 -243 158 -299 q 92 -121 92 -187 l 92 19 l 0 0 l -42 -8 l -42 364 l 0 374 l 72 392 q 118 421 100 399 q 136 471 136 443 l 136 836 l 475 906 q 525 911 508 911 q 646 879 590 911 q 735 791 701 847 q 768 668 768 735 l 768 342 l 906 374 m 729 586 l 175 472 l 175 414 l 729 529 l 729 586 m 132 14 l 132 -39 l 707 79 l 707 138 l 132 14 z "},"ﻮ":{"ha":771,"x_min":69,"x_max":771,"o":"m 517 -193 q 581 -153 556 -185 q 606 -82 606 -122 l 606 -36 l 226 -118 q 196 -121 215 -121 q 106 -85 142 -121 q 69 8 69 -49 l 69 511 q 88 562 69 539 q 133 590 106 585 l 353 636 q 404 642 375 642 q 524 610 468 642 q 613 522 579 578 q 646 400 646 467 l 646 346 l 771 374 l 771 0 l 646 -28 l 646 -299 q 580 -485 646 -404 q 411 -589 514 -567 l 69 -662 l 69 -289 l 517 -193 m 110 232 l 606 339 l 606 396 l 110 289 l 110 232 z "},"ﻰ":{"ha":843,"x_min":69,"x_max":843,"o":"m 817 -369 q 792 -442 817 -411 q 728 -481 768 -472 l 226 -583 q 196 -586 215 -586 q 106 -550 142 -586 q 69 -457 69 -514 l 69 1 q 135 188 69 107 q 303 292 200 269 l 303 -82 l 199 -104 q 133 -144 158 -112 q 108 -215 108 -175 l 108 -235 l 776 -96 l 776 -17 l 460 -83 l 460 225 q 478 276 460 253 q 524 304 496 299 l 843 374 l 843 0 l 817 -8 l 817 -369 z "},"ﻲ":{"ha":843,"x_min":69,"x_max":843,"o":"m 817 -369 q 792 -442 817 -411 q 728 -481 768 -472 l 226 -583 q 196 -586 215 -586 q 106 -550 142 -586 q 69 -457 69 -514 l 69 1 q 135 188 69 107 q 303 292 200 269 l 303 -82 l 199 -104 q 133 -144 158 -112 q 108 -215 108 -175 l 108 -235 l 776 -96 l 776 -17 l 460 -83 l 460 225 q 478 276 460 253 q 524 304 496 299 l 843 374 l 843 0 l 817 -8 l 817 -369 m 533 -600 l 635 -671 l 564 -771 l 478 -711 l 417 -797 l 315 -729 l 386 -628 l 474 -689 l 533 -600 z "},"ﻳ":{"ha":340,"x_min":-42,"x_max":315,"o":"m -42 -8 l -42 364 l 167 413 q 213 442 194 419 q 231 492 231 464 l 231 614 l 271 614 l 271 272 q 213 103 271 175 q 60 13 154 32 l -42 -8 m 214 -50 l 315 -121 l 244 -221 l 158 -161 l 97 -247 l -4 -179 l 67 -78 l 154 -139 l 214 -50 z "},"ﻴ":{"ha":588,"x_min":-42,"x_max":588,"o":"m 588 396 l 588 22 l 365 -26 q 347 -28 360 -28 q 291 -5 314 -28 q 268 51 268 18 l 268 100 q 186 38 232 60 q 82 1 140 15 l 0 -18 l -42 -26 l -42 346 l 0 356 l 246 408 q 292 437 274 415 q 310 488 310 458 l 310 613 l 349 613 l 349 371 l 349 343 l 588 396 m 315 -110 l 417 -181 l 346 -281 l 260 -221 l 199 -307 l 97 -239 l 168 -137 l 256 -199 l 315 -110 z "},"ﻵ":{"ha":578,"x_min":56,"x_max":556,"o":"m 556 1165 l 494 878 l 494 22 l 56 -71 l 56 303 l 211 335 l 211 972 l 251 972 l 251 343 l 390 374 q 436 402 418 381 q 454 453 454 424 l 454 1165 l 556 1165 m 281 1036 q 265 1045 268 1033 q 258 1065 261 1057 q 242 1069 254 1072 l 179 1056 l 179 1101 l 261 1117 q 277 1108 274 1119 q 284 1091 281 1097 q 300 1088 288 1085 l 371 1101 l 371 1057 l 281 1036 z "},"ﻶ":{"ha":682,"x_min":42,"x_max":682,"o":"m 682 374 l 682 0 l 560 -28 q 542 -31 549 -31 q 493 -10 513 -31 q 474 43 474 11 l 474 57 l 42 -36 l 42 338 l 231 378 l 231 1015 l 269 1015 l 269 388 l 410 417 q 456 445 438 422 q 474 496 474 468 l 474 1210 l 575 1210 l 514 922 l 514 436 q 537 380 514 403 q 593 357 560 357 q 611 358 606 357 l 682 374 m 299 1114 q 283 1123 286 1111 q 276 1142 279 1135 q 260 1147 272 1150 l 197 1133 l 197 1179 l 279 1194 q 295 1186 292 1197 q 302 1169 299 1175 q 318 1165 306 1163 l 389 1179 l 389 1135 l 299 1114 z "},"ﻷ":{"ha":578,"x_min":56,"x_max":556,"o":"m 556 1165 l 494 878 l 494 22 l 56 -71 l 56 303 l 211 335 l 211 972 l 251 972 l 251 343 l 390 374 q 436 402 418 381 q 454 453 454 424 l 454 1165 l 556 1165 m 160 1099 q 176 1145 160 1125 q 219 1171 193 1165 l 265 1181 l 265 1114 l 179 1094 q 172 1086 172 1094 q 176 1080 172 1082 q 182 1078 179 1078 l 297 1103 l 297 1036 l 160 1006 l 160 1099 z "},"ﻸ":{"ha":682,"x_min":42,"x_max":682,"o":"m 682 374 l 682 0 l 560 -28 q 542 -31 549 -31 q 493 -10 513 -31 q 474 43 474 11 l 474 57 l 42 -36 l 42 338 l 231 378 l 231 1015 l 269 1015 l 269 388 l 410 417 q 456 445 438 422 q 474 496 474 468 l 474 1210 l 575 1210 l 514 922 l 514 436 q 537 380 514 403 q 593 357 560 357 q 611 358 606 357 l 682 374 m 185 1161 q 201 1208 185 1188 q 244 1233 218 1228 l 290 1243 l 290 1176 l 204 1157 q 197 1149 197 1157 q 201 1142 197 1144 q 207 1140 204 1140 l 322 1165 l 322 1099 l 185 1068 l 185 1161 z "},"ﻹ":{"ha":578,"x_min":56,"x_max":556,"o":"m 556 1165 l 494 878 l 494 22 l 56 -71 l 56 303 l 211 335 l 211 972 l 251 972 l 251 343 l 390 374 q 436 402 418 381 q 454 453 454 424 l 454 1165 l 556 1165 m 169 -182 q 186 -135 169 -156 q 229 -110 203 -115 l 275 -100 l 275 -167 l 189 -186 q 182 -194 182 -186 q 185 -201 182 -199 q 192 -203 189 -203 l 307 -178 l 307 -244 l 169 -275 l 169 -182 z "},"ﻺ":{"ha":682,"x_min":42,"x_max":682,"o":"m 682 374 l 682 0 l 560 -28 q 542 -31 549 -31 q 493 -10 513 -31 q 474 43 474 11 l 474 57 l 42 -36 l 42 338 l 231 378 l 231 1015 l 269 1015 l 269 388 l 410 417 q 456 445 438 422 q 474 496 474 468 l 474 1210 l 575 1210 l 514 922 l 514 436 q 537 380 514 403 q 593 357 560 357 q 611 358 606 357 l 682 374 m 217 -144 q 233 -98 217 -118 q 276 -72 250 -78 l 322 -62 l 322 -129 l 236 -149 q 229 -157 229 -149 q 233 -163 229 -161 q 239 -165 236 -165 l 354 -140 l 354 -207 l 217 -237 l 217 -144 z "},"ﻻ":{"ha":578,"x_min":56,"x_max":556,"o":"m 556 1165 l 494 878 l 494 22 l 56 -71 l 56 303 l 211 335 l 211 972 l 251 972 l 251 343 l 390 374 q 436 402 418 381 q 454 453 454 424 l 454 1165 l 556 1165 z "},"ﻼ":{"ha":682,"x_min":42,"x_max":682,"o":"m 682 374 l 682 0 l 560 -28 q 542 -31 549 -31 q 493 -10 513 -31 q 474 43 474 11 l 474 57 l 42 -36 l 42 338 l 231 378 l 231 1015 l 269 1015 l 269 388 l 410 417 q 456 445 438 422 q 474 496 474 468 l 474 1210 l 575 1210 l 514 922 l 514 436 q 537 380 514 403 q 593 357 560 357 q 611 358 606 357 l 682 374 z "}}}
